<svg width="391" height="117" viewBox="0 0 391 117" fill="none" xmlns="http://www.w3.org/2000/svg">
<g clip-path="url(#clip0_2098_3373)" filter="url(#filter0_d_2098_3373)">
<rect width="390" height="82" transform="translate(0.189941 20.6401)" fill="white"/>
<rect x="0.189941" y="20.6401" width="78.3629" height="81.9595" fill="white"/>
<path d="M48.9802 59.797V53.0075C48.9802 52.3536 48.9796 52.0265 48.9001 51.7222C48.8297 51.4526 48.714 51.1974 48.5575 50.9668C48.3808 50.7066 48.1352 50.4908 47.6431 50.0602L41.769 44.9203C40.8553 44.1208 40.3984 43.7213 39.8843 43.5692C39.4313 43.4353 38.9484 43.4353 38.4953 43.5692C37.9816 43.7212 37.5254 44.1203 36.6131 44.9186L30.737 50.0602C30.2449 50.4908 29.9994 50.7066 29.8227 50.9668C29.6662 51.1974 29.5496 51.4526 29.4792 51.7222C29.3997 52.0265 29.3997 52.3536 29.3997 53.0075V59.797C29.3997 60.9375 29.3997 61.5074 29.586 61.9572C29.8344 62.557 30.3105 63.034 30.9103 63.2824C31.3601 63.4687 31.9303 63.4687 33.0707 63.4687C34.2111 63.4687 34.782 63.4687 35.2318 63.2824C35.8315 63.034 36.3075 62.5571 36.5559 61.9573C36.7422 61.5076 36.7424 60.9373 36.7424 59.7969V58.5731C36.7424 57.2214 37.8382 56.1256 39.1899 56.1256C40.5417 56.1256 41.6375 57.2214 41.6375 58.5731V59.7969C41.6375 60.9373 41.6375 61.5076 41.8238 61.9573C42.0722 62.5571 42.5484 63.034 43.1481 63.2824C43.5979 63.4687 44.1681 63.4687 45.3085 63.4687C46.449 63.4687 47.0198 63.4687 47.4696 63.2824C48.0693 63.034 48.5454 62.557 48.7938 61.9572C48.9801 61.5074 48.9802 60.9375 48.9802 59.797Z" stroke="#8D8E8D" stroke-width="2" stroke-linecap="round" stroke-linejoin="round"/>
<path d="M30.4659 76.5225H29.2899V72.7425H24.9459V76.5225H23.7699V68.0145H24.9459V71.6505H29.2899V68.0145H30.4659V76.5225ZM33.6973 75.1545C34.0493 75.5145 34.4773 75.6945 34.9813 75.6945C35.4853 75.6945 35.9093 75.5145 36.2533 75.1545C36.6053 74.7865 36.7813 74.2785 36.7813 73.6305C36.7813 72.9905 36.6053 72.4905 36.2533 72.1305C35.9093 71.7625 35.4853 71.5785 34.9813 71.5785C34.4773 71.5785 34.0493 71.7625 33.6973 72.1305C33.3533 72.4905 33.1813 72.9905 33.1813 73.6305C33.1813 74.2785 33.3533 74.7865 33.6973 75.1545ZM32.8573 71.4465C33.4173 70.8625 34.1253 70.5705 34.9813 70.5705C35.8373 70.5705 36.5413 70.8625 37.0933 71.4465C37.6533 72.0225 37.9333 72.7505 37.9333 73.6305C37.9333 74.5185 37.6573 75.2545 37.1053 75.8385C36.5533 76.4145 35.8453 76.7025 34.9813 76.7025C34.1173 76.7025 33.4093 76.4145 32.8573 75.8385C32.3053 75.2545 32.0293 74.5185 32.0293 73.6305C32.0293 72.7505 32.3053 72.0225 32.8573 71.4465ZM40.4925 76.5225H39.3765V70.7505H40.4565V71.5185C40.6325 71.2145 40.8805 70.9825 41.2005 70.8225C41.5205 70.6625 41.8565 70.5825 42.2085 70.5825C42.5845 70.5825 42.9285 70.6745 43.2405 70.8585C43.5525 71.0425 43.7845 71.3145 43.9365 71.6745C44.3365 70.9465 44.9805 70.5825 45.8685 70.5825C46.4205 70.5825 46.8885 70.7705 47.2725 71.1465C47.6645 71.5225 47.8605 72.0665 47.8605 72.7785V76.5225H46.7445V72.8985C46.7445 72.4985 46.6405 72.1785 46.4325 71.9385C46.2325 71.6985 45.9285 71.5785 45.5205 71.5785C45.1285 71.5785 44.8085 71.7185 44.5605 71.9985C44.3125 72.2705 44.1885 72.6145 44.1885 73.0305V76.5225H43.0605V72.8985C43.0605 72.4985 42.9565 72.1785 42.7485 71.9385C42.5485 71.6985 42.2445 71.5785 41.8365 71.5785C41.4365 71.5785 41.1125 71.7145 40.8645 71.9865C40.6165 72.2585 40.4925 72.6105 40.4925 73.0425V76.5225ZM50.3976 73.0425H53.5536C53.5376 72.6105 53.3936 72.2585 53.1216 71.9865C52.8496 71.7065 52.4656 71.5665 51.9696 71.5665C51.5216 71.5665 51.1536 71.7145 50.8656 72.0105C50.5776 72.2985 50.4216 72.6425 50.3976 73.0425ZM53.7216 74.5425L54.6936 74.8785C54.5256 75.4145 54.2136 75.8545 53.7576 76.1985C53.3016 76.5345 52.7496 76.7025 52.1016 76.7025C51.2936 76.7025 50.6056 76.4265 50.0376 75.8745C49.4776 75.3145 49.1976 74.5625 49.1976 73.6185C49.1976 72.7385 49.4696 72.0105 50.0136 71.4345C50.5576 70.8585 51.2056 70.5705 51.9576 70.5705C52.8296 70.5705 53.5096 70.8465 53.9976 71.3985C54.4856 71.9425 54.7296 72.6745 54.7296 73.5945C54.7296 73.7385 54.7216 73.8585 54.7056 73.9545H50.3616C50.3696 74.4665 50.5376 74.8865 50.8656 75.2145C51.2016 75.5425 51.6136 75.7065 52.1016 75.7065C52.9256 75.7065 53.4656 75.3185 53.7216 74.5425Z" fill="#8D8E8D"/>
<rect x="78.1899" y="20.6401" width="78.3629" height="81.9595" fill="white"/>
<rect width="24" height="24" transform="translate(105.19 41.8589)" fill="white"/>
<path d="M117.94 48.2339C117.94 50.0978 116.429 51.6089 114.565 51.6089C112.701 51.6089 111.19 50.0978 111.19 48.2339C111.19 46.3699 112.701 44.8589 114.565 44.8589C116.429 44.8589 117.94 46.3699 117.94 48.2339Z" fill="#11453B"/>
<path d="M108.191 61.0932C108.19 61.0568 108.19 61.0204 108.19 60.9839C108.19 57.4631 111.044 54.6089 114.565 54.6089C118.086 54.6089 120.94 57.4631 120.94 60.9839V60.9864C120.94 61.0221 120.94 61.0577 120.939 61.0932C119.077 62.2141 116.896 62.8589 114.565 62.8589C112.233 62.8589 110.053 62.2141 108.191 61.0932Z" fill="#11453B"/>
<path d="M123.19 49.3589V52.3589M123.19 52.3589V55.3589M123.19 52.3589H126.19M123.19 52.3589H120.19M117.94 48.2339C117.94 50.0978 116.429 51.6089 114.565 51.6089C112.701 51.6089 111.19 50.0978 111.19 48.2339C111.19 46.3699 112.701 44.8589 114.565 44.8589C116.429 44.8589 117.94 46.3699 117.94 48.2339ZM108.191 61.0932C108.19 61.0568 108.19 61.0204 108.19 60.9839C108.19 57.4631 111.044 54.6089 114.565 54.6089C118.086 54.6089 120.94 57.4631 120.94 60.9839V60.9864C120.94 61.0221 120.94 61.0577 120.939 61.0932C119.077 62.2141 116.896 62.8589 114.565 62.8589C112.233 62.8589 110.053 62.2141 108.191 61.0932Z" stroke="#11453B" stroke-width="2" stroke-linecap="round" stroke-linejoin="round"/>
<path d="M96.4659 76.347H91.2099V67.839H96.4659V69.183H92.6499V71.439H96.1059V72.747H92.6499V75.003H96.4659V76.347ZM99.3371 76.347H97.9571V70.503H99.2891V71.247C99.6251 70.647 100.357 70.335 101.017 70.335C101.785 70.335 102.457 70.683 102.769 71.367C103.225 70.599 103.909 70.335 104.665 70.335C105.721 70.335 106.729 71.007 106.729 72.555V76.347H105.385V72.783C105.385 72.099 105.037 71.583 104.257 71.583C103.525 71.583 103.045 72.159 103.045 72.879V76.347H101.677V72.783C101.677 72.111 101.341 71.583 100.549 71.583C99.8051 71.583 99.3371 72.135 99.3371 72.879V76.347ZM109.814 78.627H108.434V70.503H109.778V71.295C110.066 70.791 110.738 70.371 111.638 70.371C113.366 70.371 114.338 71.691 114.338 73.419C114.338 75.171 113.27 76.491 111.59 76.491C110.75 76.491 110.114 76.131 109.814 75.687V78.627ZM112.946 73.419C112.946 72.327 112.31 71.607 111.374 71.607C110.462 71.607 109.802 72.327 109.802 73.419C109.802 74.535 110.462 75.255 111.374 75.255C112.298 75.255 112.946 74.535 112.946 73.419ZM117.068 76.347H115.676V67.659H117.068V76.347ZM121.431 75.279C122.295 75.279 123.063 74.643 123.063 73.419C123.063 72.207 122.295 71.583 121.431 71.583C120.579 71.583 119.799 72.207 119.799 73.419C119.799 74.631 120.579 75.279 121.431 75.279ZM121.431 70.323C123.183 70.323 124.467 71.631 124.467 73.419C124.467 75.219 123.183 76.527 121.431 76.527C119.691 76.527 118.407 75.219 118.407 73.419C118.407 71.631 119.691 70.323 121.431 70.323ZM127.319 78.711H125.831L127.235 75.651L124.739 70.503H126.311L127.991 74.199L129.563 70.503H131.039L127.319 78.711ZM132.761 72.783H135.629C135.605 72.099 135.149 71.487 134.189 71.487C133.313 71.487 132.809 72.159 132.761 72.783ZM135.785 74.307L136.961 74.679C136.649 75.699 135.725 76.527 134.321 76.527C132.737 76.527 131.333 75.375 131.333 73.395C131.333 71.547 132.701 70.323 134.177 70.323C135.977 70.323 137.033 71.511 137.033 73.359C137.033 73.587 137.009 73.779 136.997 73.803H132.725C132.761 74.691 133.457 75.327 134.321 75.327C135.161 75.327 135.593 74.883 135.785 74.307ZM139.335 72.783H142.203C142.179 72.099 141.723 71.487 140.763 71.487C139.887 71.487 139.383 72.159 139.335 72.783ZM142.359 74.307L143.535 74.679C143.223 75.699 142.299 76.527 140.895 76.527C139.311 76.527 137.907 75.375 137.907 73.395C137.907 71.547 139.275 70.323 140.751 70.323C142.551 70.323 143.607 71.511 143.607 73.359C143.607 73.587 143.583 73.779 143.571 73.803H139.299C139.335 74.691 140.031 75.327 140.895 75.327C141.735 75.327 142.167 74.883 142.359 74.307Z" fill="#11453B"/>
<rect x="156.19" y="20.6401" width="78.3629" height="81.9595" fill="white"/>
<g clip-path="url(#clip1_2098_3373)">
<path d="M200.233 62.6396C195.678 62.6396 191.119 62.6396 186.565 62.6396C186.541 62.6279 186.518 62.6162 186.494 62.6083C185.441 62.4049 184.796 61.6418 184.796 60.5853C184.796 55.283 184.796 49.9768 184.796 44.6745C184.796 43.4731 185.637 42.6396 186.838 42.6396C189.773 42.6436 192.708 42.6592 195.643 42.6631C196.124 42.6631 196.523 42.8314 196.868 43.1679C198.378 44.6393 199.893 46.1067 201.415 47.5663C201.779 47.9145 201.943 48.3137 201.943 48.8146C201.935 51.542 201.939 54.2695 201.939 56.9969C201.939 58.2022 201.943 59.4035 201.939 60.6087C201.935 61.5322 201.419 62.2796 200.605 62.5418C200.484 62.577 200.358 62.6044 200.233 62.6396ZM195.224 44.2362C195.138 44.2323 195.076 44.2245 195.013 44.2245C192.332 44.2166 189.648 44.2049 186.968 44.1971C186.459 44.1971 186.357 44.2988 186.357 44.7958C186.357 50.012 186.357 55.2243 186.357 60.4405C186.357 60.507 186.357 60.5696 186.357 60.6361C186.365 60.8787 186.525 61.047 186.772 61.0666C186.831 61.0705 186.889 61.0666 186.948 61.0666C191.245 61.0666 195.541 61.0666 199.838 61.0666C200.268 61.0666 200.378 60.9531 200.378 60.5226C200.378 56.8169 200.378 53.1151 200.378 49.4094C200.378 49.3389 200.378 49.2724 200.378 49.1902C200.276 49.1902 200.206 49.1902 200.135 49.1902C199.177 49.1902 198.222 49.1902 197.263 49.1902C196.066 49.1863 195.224 48.345 195.22 47.1515C195.216 46.2515 195.22 45.3554 195.22 44.4553C195.224 44.3927 195.224 44.3223 195.224 44.2362ZM196.786 45.2614C196.786 45.9267 196.786 46.5371 196.786 47.1476C196.786 47.4802 196.938 47.6328 197.275 47.6328C197.873 47.6367 198.472 47.6328 199.071 47.6328C199.11 47.6328 199.149 47.6211 199.216 47.6093C198.406 46.8267 197.619 46.0675 196.786 45.2614Z" fill="#8D8E8D" stroke="#8D8E8D" stroke-width="0.308277"/>
<path d="M193.39 57.5221C194.783 57.5221 196.172 57.5221 197.565 57.5221C198.062 57.5221 198.406 57.1778 198.391 56.7121C198.379 56.3756 198.136 56.0704 197.808 55.9921C197.714 55.9686 197.616 55.9608 197.518 55.9608C194.767 55.9608 192.016 55.9608 189.265 55.9608C188.812 55.9608 188.506 56.1878 188.416 56.583C188.315 57.0174 188.635 57.4674 189.078 57.5143C189.168 57.5221 189.258 57.5221 189.352 57.5221C190.698 57.5221 192.044 57.5221 193.39 57.5221Z" fill="#8D8E8D" stroke="#8D8E8D" stroke-width="0.308277"/>
<path d="M192.38 54.3995C193.441 54.3995 194.501 54.4034 195.562 54.3956C196.149 54.3916 196.528 53.8321 196.297 53.3155C196.145 52.9712 195.863 52.8342 195.499 52.8342C194.505 52.8342 193.507 52.8342 192.513 52.8342C191.425 52.8342 190.342 52.8342 189.254 52.8342C188.843 52.8342 188.545 53.0338 188.432 53.3703C188.264 53.879 188.628 54.3877 189.179 54.3916C190.103 54.3995 191.026 54.3956 191.95 54.3956C192.095 54.3995 192.239 54.3995 192.38 54.3995Z" fill="#8D8E8D" stroke="#8D8E8D" stroke-width="0.308277"/>
<path d="M191.378 51.2729C192.114 51.2729 192.846 51.2768 193.582 51.269C193.934 51.2651 194.212 51.0303 194.302 50.6898C194.388 50.3768 194.27 50.0285 193.985 49.8563C193.852 49.7781 193.683 49.7155 193.531 49.7155C192.087 49.7037 190.643 49.7076 189.203 49.7115C188.776 49.7115 188.459 49.9933 188.401 50.3924C188.346 50.7563 188.581 51.1242 188.948 51.2337C189.05 51.2651 189.168 51.269 189.277 51.269C189.978 51.2768 190.678 51.2729 191.378 51.2729Z" fill="#8D8E8D" stroke="#8D8E8D" stroke-width="0.308277"/>
</g>
<path d="M178.946 71.9865H180.65C181.154 71.9865 181.554 71.8585 181.85 71.6025C182.146 71.3385 182.294 70.9865 182.294 70.5465C182.294 70.0985 182.146 69.7425 181.85 69.4785C181.554 69.2065 181.154 69.0705 180.65 69.0705H178.946V71.9865ZM180.866 73.0425H178.946V76.5225H177.77V68.0145H180.866C181.642 68.0145 182.274 68.2545 182.762 68.7345C183.25 69.2145 183.494 69.8145 183.494 70.5345C183.494 71.2625 183.25 71.8625 182.762 72.3345C182.274 72.8065 181.642 73.0425 180.866 73.0425ZM184.087 74.9745C184.087 74.4785 184.247 74.0825 184.567 73.7865C184.887 73.4825 185.311 73.2945 185.839 73.2225L187.399 72.9945C187.695 72.9545 187.843 72.8105 187.843 72.5625C187.843 72.2585 187.739 72.0105 187.531 71.8185C187.323 71.6265 187.011 71.5305 186.595 71.5305C186.211 71.5305 185.907 71.6385 185.683 71.8545C185.459 72.0625 185.327 72.3425 185.287 72.6945L184.207 72.4425C184.263 71.8905 184.515 71.4425 184.963 71.0985C185.411 70.7465 185.947 70.5705 186.571 70.5705C187.387 70.5705 187.991 70.7705 188.383 71.1705C188.775 71.5625 188.971 72.0665 188.971 72.6825V75.5745C188.971 75.9185 188.995 76.2345 189.043 76.5225H187.939C187.899 76.2825 187.879 76.0225 187.879 75.7425C187.719 75.9985 187.483 76.2225 187.171 76.4145C186.867 76.6065 186.483 76.7025 186.019 76.7025C185.451 76.7025 184.987 76.5345 184.627 76.1985C184.267 75.8545 184.087 75.4465 184.087 74.9745ZM186.175 75.7545C186.679 75.7545 187.083 75.6185 187.387 75.3465C187.691 75.0745 187.843 74.6425 187.843 74.0505V73.7865L186.079 74.0505C185.823 74.0905 185.619 74.1825 185.467 74.3265C185.315 74.4705 185.239 74.6665 185.239 74.9145C185.239 75.1385 185.323 75.3345 185.491 75.5025C185.667 75.6705 185.895 75.7545 186.175 75.7545ZM192.051 78.9345H190.815L192.255 75.8865L189.771 70.7505H191.067L192.867 74.7345L194.595 70.7505H195.807L192.051 78.9345ZM200.096 70.6905V71.8905C199.928 71.8665 199.764 71.8545 199.604 71.8545C198.548 71.8545 198.02 72.4465 198.02 73.6305V76.5225H196.892V70.7505H197.996V71.7585C198.348 71.0225 198.924 70.6545 199.724 70.6545C199.852 70.6545 199.976 70.6665 200.096 70.6905ZM202.428 75.1545C202.78 75.5145 203.208 75.6945 203.712 75.6945C204.216 75.6945 204.64 75.5145 204.984 75.1545C205.336 74.7865 205.512 74.2785 205.512 73.6305C205.512 72.9905 205.336 72.4905 204.984 72.1305C204.64 71.7625 204.216 71.5785 203.712 71.5785C203.208 71.5785 202.78 71.7625 202.428 72.1305C202.084 72.4905 201.912 72.9905 201.912 73.6305C201.912 74.2785 202.084 74.7865 202.428 75.1545ZM201.588 71.4465C202.148 70.8625 202.856 70.5705 203.712 70.5705C204.568 70.5705 205.272 70.8625 205.824 71.4465C206.384 72.0225 206.664 72.7505 206.664 73.6305C206.664 74.5185 206.388 75.2545 205.836 75.8385C205.284 76.4145 204.576 76.7025 203.712 76.7025C202.848 76.7025 202.14 76.4145 201.588 75.8385C201.036 75.2545 200.76 74.5185 200.76 73.6305C200.76 72.7505 201.036 72.0225 201.588 71.4465ZM209.235 76.5225H208.107V67.8345H209.235V76.5225ZM212.282 76.5225H211.154V67.8345H212.282V76.5225Z" fill="#8D8E8D"/>
<rect x="234.19" y="20.6401" width="78.3629" height="81.9595" fill="white"/>
<g clip-path="url(#clip2_2098_3373)">
<path d="M273.582 42.6401C274.021 42.7262 274.469 42.7822 274.899 42.9071C277.461 43.6304 279.377 45.8949 279.691 48.5384C280.096 51.9654 277.96 55.0996 274.654 55.9305C270.951 56.8605 267.154 54.3979 266.491 50.635C265.914 47.3803 267.615 44.2891 270.667 43.1008C271.214 42.8898 271.812 42.8167 272.389 42.6789C272.445 42.666 272.501 42.6531 272.553 42.6401C272.893 42.6401 273.237 42.6401 273.582 42.6401ZM278.455 49.3779C278.447 46.3556 276.023 43.9188 273.035 43.9317C270.064 43.9403 267.649 46.403 267.658 49.4037C267.666 52.4045 270.103 54.8499 273.074 54.8413C276.04 54.8327 278.464 52.3744 278.455 49.3779Z" fill="#8D8E8D"/>
<path d="M264.033 58.3112C264.076 58.1347 264.101 57.9797 264.153 57.8333C264.45 56.9938 265.083 56.5805 265.927 56.391C267.365 56.0681 268.734 56.2145 270.056 56.8904C270.529 57.1315 271.029 57.3425 271.537 57.5147C271.842 57.618 272.178 57.6568 272.505 57.6697C273.155 57.6912 273.81 57.674 274.46 57.6783C274.934 57.6783 275.188 57.9409 275.175 58.4145C275.157 59.056 274.955 59.6329 274.568 60.1969C274.886 60.1969 275.175 60.2055 275.459 60.1926C275.515 60.1883 275.571 60.1108 275.622 60.0591C276.225 59.4564 276.824 58.8493 277.431 58.2552C278.606 57.1057 280.453 57.0713 281.676 58.1691C282.063 58.5178 282.076 58.8924 281.71 59.2583C280.203 60.7695 278.692 62.2763 277.185 63.7832C276.604 64.3644 275.902 64.6486 275.084 64.6486C270.753 64.6486 266.422 64.6486 262.091 64.6486C261.579 64.6399 261.333 64.3945 261.333 63.8865C261.333 62.2763 261.333 60.6662 261.333 59.0517C261.333 58.548 261.574 58.3112 262.087 58.3112C262.728 58.3069 263.374 58.3112 264.033 58.3112ZM265.333 63.3527C265.436 63.3527 265.514 63.3527 265.591 63.3527C268.725 63.3527 271.864 63.3484 274.998 63.357C275.523 63.357 275.954 63.1848 276.324 62.8102C277.607 61.5186 278.894 60.2356 280.182 58.9484C280.225 58.9053 280.259 58.858 280.311 58.802C280.259 58.7805 280.229 58.7589 280.195 58.7503C279.467 58.5221 278.825 58.6728 278.279 59.211C277.629 59.8568 276.974 60.4983 276.337 61.157C276.109 61.3895 275.863 61.4928 275.541 61.4885C273.53 61.4799 271.515 61.4799 269.505 61.4799C269.238 61.4799 268.975 61.4842 268.708 61.4713C268.458 61.4583 268.278 61.3206 268.174 61.0967C268.075 60.8771 268.097 60.6619 268.239 60.4638C268.389 60.2486 268.609 60.184 268.859 60.184C269.81 60.1883 270.762 60.1883 271.717 60.1883C271.903 60.1883 272.092 60.1883 272.273 60.1711C272.932 60.0979 273.582 59.564 273.745 58.957C273.353 58.957 272.97 58.9527 272.587 58.957C271.98 58.9656 271.386 58.8709 270.826 58.6384C270.31 58.4274 269.797 58.2079 269.298 57.9581C268.226 57.4286 267.128 57.3942 265.996 57.7041C265.531 57.829 265.333 58.0959 265.333 58.5738C265.333 59.7104 265.333 60.8513 265.333 61.9879C265.333 62.4356 265.333 62.8791 265.333 63.3527ZM264.033 63.3398C264.033 62.0869 264.033 60.8513 264.033 59.6114C263.559 59.6114 263.103 59.6114 262.633 59.6114C262.633 60.8599 262.633 62.0955 262.633 63.3398C263.103 63.3398 263.559 63.3398 264.033 63.3398Z" fill="#8D8E8D"/>
<g clip-path="url(#clip3_2098_3373)">
<path d="M274.117 47.4549C274.117 47.2887 274.121 47.1221 274.117 46.956C274.114 46.8681 274.147 46.8443 274.231 46.8455C274.467 46.8499 274.704 46.8515 274.941 46.8455C275.041 46.8427 275.07 46.8766 275.069 46.9745C275.063 47.2867 275.071 47.5992 275.064 47.9118C275.062 48.0263 275.089 48.0731 275.214 48.0682C275.486 48.0618 275.486 48.0682 275.486 48.3481C275.486 48.5143 275.482 48.6808 275.486 48.847C275.488 48.9276 275.467 48.9599 275.378 48.9615C275.066 48.968 275.066 48.972 275.066 49.2918C275.066 49.4479 275.07 49.6043 275.066 49.7604C275.063 49.8459 275.092 49.8717 275.177 49.8745C275.486 49.8834 275.486 49.8866 275.486 50.1927C275.486 50.3488 275.482 50.5053 275.486 50.6613C275.489 50.746 275.461 50.7722 275.374 50.7738C275.065 50.7803 275.066 50.7839 275.066 51.092C275.066 51.3288 275.062 51.5659 275.066 51.8022C275.066 51.8958 275.035 51.9232 274.945 51.9212C274.683 51.9159 274.42 51.9155 274.159 51.9212C274.122 51.9247 274.085 51.917 274.053 51.8989C274.02 51.8808 273.994 51.8532 273.978 51.8199C273.791 51.5094 273.596 51.2037 273.41 50.8924C273.359 50.8053 273.303 50.7662 273.197 50.7682C272.839 50.7759 272.481 50.7742 272.124 50.7682C272.025 50.7682 271.996 50.7968 271.998 50.8952C272.004 51.1924 271.995 51.4897 272.002 51.7869C272.004 51.895 271.969 51.924 271.865 51.9204C271.638 51.9131 271.411 51.9115 271.185 51.9204C271.066 51.9256 271.041 51.88 271.043 51.7732C271.05 51.486 271.041 51.1989 271.048 50.9118C271.051 50.8013 271.023 50.7638 270.906 50.7666C270.638 50.773 270.638 50.7666 270.638 50.5016C270.638 50.3254 270.641 50.1488 270.638 49.9725C270.638 49.8919 270.666 49.8713 270.743 49.8685C271.047 49.8564 271.047 49.8536 271.047 49.5459C271.047 49.3898 271.043 49.2333 271.047 49.0772C271.05 48.9869 271.022 48.9563 270.928 48.9563C270.638 48.9534 270.638 48.9494 270.638 48.653C270.638 48.4969 270.643 48.3405 270.638 48.1844C270.634 48.0924 270.663 48.0634 270.756 48.0634C271.048 48.059 271.048 48.0545 271.048 47.7553C271.048 47.4932 271.051 47.231 271.048 46.9693C271.048 46.881 271.07 46.8435 271.166 46.8459C271.423 46.852 271.68 46.8511 271.937 46.8459C271.972 46.8431 272.006 46.851 272.036 46.8684C272.066 46.8859 272.09 46.9121 272.105 46.9435C272.306 47.2798 272.517 47.6121 272.719 47.9493C272.768 48.0299 272.82 48.0703 272.92 48.0703C273.278 48.0638 273.636 48.0646 273.993 48.0703C274.092 48.0703 274.126 48.0416 274.122 47.9416C274.114 47.7803 274.122 47.619 274.122 47.4577L274.117 47.4549ZM273.337 48.9591C273.524 49.2652 273.696 49.5471 273.87 49.8277C273.918 49.9048 273.999 49.8705 274.064 49.8681C274.145 49.8648 274.115 49.7939 274.116 49.7499C274.118 49.5233 274.116 49.2966 274.116 49.07C274.116 49.0151 274.126 48.9571 274.038 48.9583C273.815 48.9611 273.59 48.9591 273.337 48.9591ZM272.775 49.8713L272.241 49.0059C272.193 48.9272 272.114 48.9595 272.049 48.9623C271.969 48.9663 272.002 49.0377 272.001 49.0805C271.998 49.3067 272.001 49.533 272.001 49.7592C272.001 49.8124 271.987 49.8733 272.077 49.8721C272.299 49.8697 272.523 49.8713 272.775 49.8713Z" fill="#8D8E8D"/>
</g>
</g>
<path d="M262.966 76.5225H257.77V68.0145H258.946V75.4185H262.966V76.5225ZM265.354 75.1545C265.706 75.5145 266.134 75.6945 266.638 75.6945C267.142 75.6945 267.566 75.5145 267.91 75.1545C268.262 74.7865 268.438 74.2785 268.438 73.6305C268.438 72.9905 268.262 72.4905 267.91 72.1305C267.566 71.7625 267.142 71.5785 266.638 71.5785C266.134 71.5785 265.706 71.7625 265.354 72.1305C265.01 72.4905 264.838 72.9905 264.838 73.6305C264.838 74.2785 265.01 74.7865 265.354 75.1545ZM264.514 71.4465C265.074 70.8625 265.782 70.5705 266.638 70.5705C267.494 70.5705 268.198 70.8625 268.75 71.4465C269.31 72.0225 269.59 72.7505 269.59 73.6305C269.59 74.5185 269.314 75.2545 268.762 75.8385C268.21 76.4145 267.502 76.7025 266.638 76.7025C265.774 76.7025 265.066 76.4145 264.514 75.8385C263.962 75.2545 263.686 74.5185 263.686 73.6305C263.686 72.7505 263.962 72.0225 264.514 71.4465ZM270.673 74.9745C270.673 74.4785 270.833 74.0825 271.153 73.7865C271.473 73.4825 271.897 73.2945 272.425 73.2225L273.985 72.9945C274.281 72.9545 274.429 72.8105 274.429 72.5625C274.429 72.2585 274.325 72.0105 274.117 71.8185C273.909 71.6265 273.597 71.5305 273.181 71.5305C272.797 71.5305 272.493 71.6385 272.269 71.8545C272.045 72.0625 271.913 72.3425 271.873 72.6945L270.793 72.4425C270.849 71.8905 271.101 71.4425 271.549 71.0985C271.997 70.7465 272.533 70.5705 273.157 70.5705C273.973 70.5705 274.577 70.7705 274.969 71.1705C275.361 71.5625 275.557 72.0665 275.557 72.6825V75.5745C275.557 75.9185 275.581 76.2345 275.629 76.5225H274.525C274.485 76.2825 274.465 76.0225 274.465 75.7425C274.305 75.9985 274.069 76.2225 273.757 76.4145C273.453 76.6065 273.069 76.7025 272.605 76.7025C272.037 76.7025 271.573 76.5345 271.213 76.1985C270.853 75.8545 270.673 75.4465 270.673 74.9745ZM272.761 75.7545C273.265 75.7545 273.669 75.6185 273.973 75.3465C274.277 75.0745 274.429 74.6425 274.429 74.0505V73.7865L272.665 74.0505C272.409 74.0905 272.205 74.1825 272.053 74.3265C271.901 74.4705 271.825 74.6665 271.825 74.9145C271.825 75.1385 271.909 75.3345 272.077 75.5025C272.253 75.6705 272.481 75.7545 272.761 75.7545ZM278.442 73.1865V76.5225H277.314V70.7505H278.418V71.5785C278.802 70.9145 279.394 70.5825 280.194 70.5825C280.858 70.5825 281.366 70.7945 281.718 71.2185C282.078 71.6425 282.258 72.1905 282.258 72.8625V76.5225H281.13V73.0545C281.13 72.0865 280.682 71.6025 279.786 71.6025C279.362 71.6025 279.03 71.7545 278.79 72.0585C278.558 72.3545 278.442 72.7305 278.442 73.1865ZM283.512 75.0225L284.532 74.6625C284.572 74.9745 284.708 75.2345 284.94 75.4425C285.172 75.6425 285.484 75.7425 285.876 75.7425C286.18 75.7425 286.42 75.6705 286.596 75.5265C286.772 75.3745 286.86 75.1905 286.86 74.9745C286.86 74.5905 286.612 74.3425 286.116 74.2305L285.132 74.0145C284.684 73.9185 284.332 73.7265 284.076 73.4385C283.82 73.1505 283.692 72.8025 283.692 72.3945C283.692 71.8985 283.892 71.4705 284.292 71.1105C284.7 70.7505 285.184 70.5705 285.744 70.5705C286.112 70.5705 286.44 70.6265 286.728 70.7385C287.016 70.8425 287.24 70.9825 287.4 71.1585C287.56 71.3345 287.68 71.4985 287.76 71.6505C287.84 71.8025 287.9 71.9585 287.94 72.1185L286.944 72.4905C286.928 72.3945 286.9 72.3025 286.86 72.2145C286.82 72.1185 286.756 72.0145 286.668 71.9025C286.588 71.7905 286.468 71.7025 286.308 71.6385C286.148 71.5665 285.96 71.5305 285.744 71.5305C285.464 71.5305 285.232 71.6065 285.048 71.7585C284.872 71.9105 284.784 72.0905 284.784 72.2985C284.784 72.6665 285.004 72.8985 285.444 72.9945L286.38 73.1985C286.892 73.3105 287.284 73.5185 287.556 73.8225C287.836 74.1185 287.976 74.4825 287.976 74.9145C287.976 75.3705 287.788 75.7825 287.412 76.1505C287.044 76.5185 286.528 76.7025 285.864 76.7025C285.152 76.7025 284.596 76.5265 284.196 76.1745C283.796 75.8145 283.568 75.4305 283.512 75.0225Z" fill="#8D8E8D"/>
<rect x="312.19" y="20.6401" width="78.3629" height="81.9595" fill="white"/>
<path d="M346.685 42.5488C346.849 42.6018 347.018 42.6441 347.182 42.7077C348.162 43.0624 348.839 43.9783 348.845 45.0213C348.855 46.7525 348.86 48.489 348.845 50.2202C348.829 51.565 347.727 52.6715 346.383 52.6821C344.652 52.698 342.915 52.698 341.184 52.6821C339.839 52.6662 338.733 51.565 338.717 50.2202C338.701 48.489 338.701 46.7525 338.717 45.0213C338.727 43.8671 339.537 42.893 340.681 42.6124C340.744 42.5965 340.808 42.57 340.877 42.5488C342.809 42.5488 344.747 42.5488 346.685 42.5488ZM343.778 44.2377C342.957 44.2377 342.142 44.2377 341.321 44.2377C340.744 44.2377 340.4 44.5765 340.395 45.1536C340.395 46.8001 340.395 48.4467 340.395 50.0932C340.395 50.6491 340.744 50.9985 341.306 50.9985C342.952 50.9985 344.599 50.9985 346.245 50.9985C346.806 50.9985 347.156 50.6544 347.156 50.0932C347.161 48.4467 347.156 46.8001 347.156 45.1536C347.156 44.5818 346.806 44.2377 346.235 44.2377C345.414 44.2377 344.599 44.2377 343.778 44.2377Z" fill="#8D8E8D"/>
<path d="M360.678 50.5271C360.635 50.6701 360.598 50.8077 360.55 50.9507C360.217 51.9672 359.275 52.6819 358.205 52.6872C356.474 52.7031 354.737 52.7031 353.006 52.6872C351.661 52.6713 350.555 51.5648 350.544 50.2254C350.528 48.4941 350.528 46.7576 350.544 45.0264C350.555 43.8722 351.365 42.8981 352.508 42.6175C352.572 42.6016 352.636 42.5751 352.704 42.5539C354.642 42.5539 356.58 42.5539 358.512 42.5539C358.56 42.5698 358.607 42.5963 358.655 42.6069C359.592 42.8292 360.222 43.3957 360.55 44.3011C360.598 44.4387 360.635 44.5817 360.678 44.7246C360.678 46.6517 360.678 48.5894 360.678 50.5271ZM355.611 50.9983C356.437 50.9983 357.268 51.0036 358.094 50.9983C358.639 50.9983 358.989 50.6489 358.989 50.1089C358.994 48.4518 358.994 46.8 358.989 45.1428C358.989 44.5869 358.634 44.2375 358.078 44.2375C356.432 44.2375 354.785 44.2375 353.138 44.2375C352.577 44.2375 352.228 44.5817 352.228 45.1428C352.228 46.7894 352.228 48.4359 352.228 50.0824C352.228 50.6542 352.577 50.9983 353.154 50.9983C353.975 51.0036 354.79 50.9983 355.611 50.9983Z" fill="#8D8E8D"/>
<path d="M360.678 59.9774C360.625 60.205 360.582 60.438 360.524 60.6656C359.963 62.9739 357.856 64.5728 355.452 64.5146C353.117 64.4616 351.09 62.741 350.64 60.4433C349.999 57.1873 352.556 54.2278 355.87 54.3813C358.279 54.4925 360.328 56.3826 360.625 58.765C360.635 58.8338 360.656 58.9026 360.672 58.9662C360.678 59.3103 360.678 59.6438 360.678 59.9774ZM358.989 59.4427C358.989 57.6002 357.475 56.0755 355.637 56.0702C353.758 56.0649 352.233 57.5738 352.233 59.4427C352.233 61.3168 353.747 62.831 355.627 62.831C357.48 62.831 358.989 61.3115 358.989 59.4427Z" fill="#8D8E8D"/>
<path d="M343.752 64.5197C342.942 64.5197 342.132 64.5197 341.322 64.5197C339.807 64.5144 338.712 63.4184 338.706 61.9043C338.701 60.2683 338.701 58.6324 338.706 56.9965C338.712 55.4823 339.807 54.3864 341.322 54.3811C342.958 54.3758 344.593 54.3758 346.229 54.3811C347.744 54.3864 348.84 55.477 348.845 56.9965C348.85 58.6324 348.85 60.2683 348.845 61.9043C348.84 63.4237 347.749 64.5144 346.229 64.5197C345.409 64.5249 344.578 64.5197 343.752 64.5197ZM343.789 56.07C342.968 56.07 342.153 56.07 341.332 56.07C340.739 56.07 340.4 56.4088 340.4 57.0071C340.4 58.6377 340.4 60.263 340.4 61.8937C340.4 62.4866 340.739 62.8308 341.332 62.8308C342.963 62.8308 344.588 62.8308 346.219 62.8308C346.828 62.8308 347.161 62.4919 347.167 61.8831C347.167 60.263 347.167 58.643 347.167 57.0229C347.167 56.4088 346.833 56.07 346.224 56.07C345.404 56.07 344.593 56.07 343.789 56.07Z" fill="#8D8E8D"/>
<path d="M344.962 76.6401H343.798V70.0161L340.894 76.6401H339.814L336.934 70.0161V76.6401H335.77V68.1321H337.366L340.366 75.0561L343.39 68.1321H344.962V76.6401ZM348.193 75.2721C348.545 75.6321 348.973 75.8121 349.477 75.8121C349.981 75.8121 350.405 75.6321 350.749 75.2721C351.101 74.9041 351.277 74.3961 351.277 73.7481C351.277 73.1081 351.101 72.6081 350.749 72.2481C350.405 71.8801 349.981 71.6961 349.477 71.6961C348.973 71.6961 348.545 71.8801 348.193 72.2481C347.849 72.6081 347.677 73.1081 347.677 73.7481C347.677 74.3961 347.849 74.9041 348.193 75.2721ZM347.353 71.5641C347.913 70.9801 348.621 70.6881 349.477 70.6881C350.333 70.6881 351.037 70.9801 351.589 71.5641C352.149 72.1401 352.429 72.8681 352.429 73.7481C352.429 74.6361 352.153 75.3721 351.601 75.9561C351.049 76.5321 350.341 76.8201 349.477 76.8201C348.613 76.8201 347.905 76.5321 347.353 75.9561C346.801 75.3721 346.525 74.6361 346.525 73.7481C346.525 72.8681 346.801 72.1401 347.353 71.5641ZM357.077 70.8081V72.0081C356.909 71.9841 356.745 71.9721 356.585 71.9721C355.529 71.9721 355.001 72.5641 355.001 73.7481V76.6401H353.873V70.8681H354.977V71.8761C355.329 71.1401 355.905 70.7721 356.705 70.7721C356.833 70.7721 356.957 70.7841 357.077 70.8081ZM358.952 73.1601H362.108C362.092 72.7281 361.948 72.3761 361.676 72.1041C361.404 71.8241 361.02 71.6841 360.524 71.6841C360.076 71.6841 359.708 71.8321 359.42 72.1281C359.132 72.4161 358.976 72.7601 358.952 73.1601ZM362.276 74.6601L363.248 74.9961C363.08 75.5321 362.768 75.9721 362.312 76.3161C361.856 76.6521 361.304 76.8201 360.656 76.8201C359.848 76.8201 359.16 76.5441 358.592 75.9921C358.032 75.4321 357.752 74.6801 357.752 73.7361C357.752 72.8561 358.024 72.1281 358.568 71.5521C359.112 70.9761 359.76 70.6881 360.512 70.6881C361.384 70.6881 362.064 70.9641 362.552 71.5161C363.04 72.0601 363.284 72.7921 363.284 73.7121C363.284 73.8561 363.276 73.9761 363.26 74.0721H358.916C358.924 74.5841 359.092 75.0041 359.42 75.3321C359.756 75.6601 360.168 75.8241 360.656 75.8241C361.48 75.8241 362.02 75.4361 362.276 74.6601Z" fill="#8D8E8D"/>
</g>
<rect width="390" height="35.36" transform="translate(0.189941 102.64)" fill="white"/>
<defs>
<filter id="filter0_d_2098_3373" x="-11.8101" y="0.640137" width="414" height="106" filterUnits="userSpaceOnUse" color-interpolation-filters="sRGB">
<feFlood flood-opacity="0" result="BackgroundImageFix"/>
<feColorMatrix in="SourceAlpha" type="matrix" values="0 0 0 0 0 0 0 0 0 0 0 0 0 0 0 0 0 0 127 0" result="hardAlpha"/>
<feOffset dy="-8"/>
<feGaussianBlur stdDeviation="6"/>
<feColorMatrix type="matrix" values="0 0 0 0 0.396078 0 0 0 0 0.423529 0 0 0 0 0.490196 0 0 0 0.08 0"/>
<feBlend mode="multiply" in2="BackgroundImageFix" result="effect1_dropShadow_2098_3373"/>
<feBlend mode="normal" in="SourceGraphic" in2="effect1_dropShadow_2098_3373" result="shape"/>
</filter>
<clipPath id="clip0_2098_3373">
<rect width="390" height="82" fill="white" transform="translate(0.189941 20.6401)"/>
</clipPath>
<clipPath id="clip1_2098_3373">
<rect width="17.1512" height="20" fill="white" transform="translate(184.796 42.6396)"/>
</clipPath>
<clipPath id="clip2_2098_3373">
<rect width="20.6352" height="22" fill="white" transform="translate(261.333 42.6401)"/>
</clipPath>
<clipPath id="clip3_2098_3373">
<rect width="4.84984" height="5.07769" fill="white" transform="translate(270.635 46.8448)"/>
</clipPath>
</defs>
</svg>
