<svg width="391" height="105" viewBox="0 0 391 105" fill="none" xmlns="http://www.w3.org/2000/svg">
<mask id="path-1-outside-1_2098_3350" maskUnits="userSpaceOnUse" x="0.189941" y="0" width="390" height="105" fill="black">
<rect fill="white" x="0.189941" width="390" height="105"/>
<path d="M0.189941 0H390.19V104H0.189941V0Z"/>
</mask>
<path d="M0.189941 0H390.19V104H0.189941V0Z" fill="white"/>
<rect width="390" height="40" transform="translate(0.189941)" fill="white"/>
<path fill-rule="evenodd" clip-rule="evenodd" d="M340.073 20.6075C340.073 18.2848 341.956 16.4019 344.279 16.4019H358.998C361.321 16.4019 363.204 18.2848 363.204 20.6075V25.8645C363.204 28.1872 361.321 30.0701 358.998 30.0701H344.279C341.956 30.0701 340.073 28.1872 340.073 25.8645V20.6075Z" fill="#B2B2B2"/>
<path d="M340.073 20.6075C340.073 18.2848 341.956 16.4019 344.279 16.4019H356.896V30.0701H344.279C341.956 30.0701 340.073 28.1872 340.073 25.8645V20.6075Z" fill="#292A29"/>
<path d="M364.255 21.4565V25.7232C365.114 25.3618 365.672 24.5212 365.672 23.5898C365.672 22.6585 365.114 21.8179 364.255 21.4565Z" fill="#B2B2B2"/>
<path d="M345.444 26.9159L348.602 20.8734V20.781H344.864V19.5027H350.162V20.7964L347.067 26.9159H345.444Z" fill="white"/>
<path d="M354.368 27.1058C353.831 27.1058 353.352 26.9912 352.931 26.7619C352.513 26.5326 352.178 26.2006 351.925 25.7659C351.51 25.1293 351.303 24.2959 351.303 23.2658C351.303 22.0371 351.577 21.0719 352.125 20.3703C352.672 19.6687 353.429 19.3179 354.394 19.3179C355.099 19.3179 355.7 19.5078 356.196 19.8877C356.696 20.2676 356.998 20.7673 357.105 21.3868H355.57C355.498 21.1438 355.354 20.9504 355.138 20.8067C354.926 20.6629 354.675 20.5911 354.384 20.5911C353.877 20.5911 353.478 20.8187 353.188 21.2738C352.9 21.7256 352.765 22.3365 352.782 23.1066H352.874C353.042 22.7575 353.29 22.4888 353.619 22.3006C353.951 22.1089 354.332 22.0131 354.764 22.0131C355.465 22.0131 356.047 22.2458 356.509 22.7113C356.971 23.1768 357.202 23.7637 357.202 24.4722C357.202 25.2423 356.937 25.8737 356.406 26.3666C355.876 26.8594 355.197 27.1058 354.368 27.1058ZM353.398 25.4528C353.655 25.706 353.973 25.8327 354.353 25.8327C354.733 25.8327 355.051 25.7077 355.308 25.4579C355.568 25.2046 355.698 24.8915 355.698 24.5184C355.698 24.1419 355.571 23.8305 355.318 23.5841C355.065 23.3342 354.745 23.2093 354.358 23.2093C353.971 23.2093 353.65 23.3325 353.393 23.5789C353.14 23.8253 353.013 24.1334 353.013 24.503C353.013 24.8795 353.141 25.1961 353.398 25.4528Z" fill="white"/>
<path fill-rule="evenodd" clip-rule="evenodd" d="M326.93 19.0988C329.397 19.0989 331.769 20.0663 333.557 21.801C333.691 21.935 333.907 21.9333 334.039 21.7973L335.326 20.4717C335.393 20.4027 335.43 20.3092 335.43 20.212C335.429 20.1148 335.391 20.0218 335.323 19.9536C330.631 15.3638 323.229 15.3638 318.537 19.9536C318.469 20.0217 318.431 20.1147 318.43 20.2119C318.429 20.3092 318.467 20.4026 318.534 20.4717L319.821 21.7973C319.953 21.9335 320.169 21.9352 320.303 21.801C322.091 20.0662 324.464 19.0988 326.93 19.0988ZM326.966 23.1006C328.321 23.1005 329.628 23.6146 330.632 24.5432C330.768 24.6749 330.982 24.6721 331.115 24.5367L332.4 23.2111C332.468 23.1416 332.505 23.0473 332.504 22.9493C332.503 22.8513 332.464 22.7577 332.395 22.6896C329.336 19.785 324.598 19.785 321.539 22.6896C321.47 22.7577 321.431 22.8513 321.43 22.9494C321.429 23.0474 321.467 23.1417 321.535 23.2111L322.819 24.5367C322.952 24.6721 323.166 24.6749 323.302 24.5432C324.306 23.6153 325.612 23.1011 326.966 23.1006ZM329.58 25.6881C329.582 25.7864 329.544 25.8811 329.475 25.95L327.252 28.2402C327.186 28.3075 327.098 28.3454 327.005 28.3454C326.912 28.3454 326.823 28.3075 326.758 28.2402L324.535 25.95C324.466 25.8811 324.428 25.7863 324.43 25.688C324.432 25.5897 324.474 25.4966 324.545 25.4308C325.965 24.2049 328.045 24.2049 329.465 25.4308C329.536 25.4967 329.578 25.5898 329.58 25.6881Z" fill="#292A29"/>
<path d="M305.55 19.5112C305.55 18.9589 305.998 18.5112 306.55 18.5112H307.55C308.102 18.5112 308.55 18.9589 308.55 19.5112V27.5112C308.55 28.0635 308.102 28.5112 307.55 28.5112H306.55C305.998 28.5112 305.55 28.0635 305.55 27.5112V19.5112Z" fill="#292A29"/>
<path d="M310.55 17.5112C310.55 16.9589 310.998 16.5112 311.55 16.5112H312.55C313.102 16.5112 313.55 16.9589 313.55 17.5112V27.5112C313.55 28.0635 313.102 28.5112 312.55 28.5112H311.55C310.998 28.5112 310.55 28.0635 310.55 27.5112V17.5112Z" fill="#292A29"/>
<path d="M300.55 23.0112C300.55 22.4589 300.998 22.0112 301.55 22.0112H302.55C303.102 22.0112 303.55 22.4589 303.55 23.0112V27.5112C303.55 28.0635 303.102 28.5112 302.55 28.5112H301.55C300.998 28.5112 300.55 28.0635 300.55 27.5112V23.0112Z" fill="#292A29"/>
<path d="M295.55 25.5112C295.55 24.9589 295.998 24.5112 296.55 24.5112H297.55C298.102 24.5112 298.55 24.9589 298.55 25.5112V27.5112C298.55 28.0635 298.102 28.5112 297.55 28.5112H296.55C295.998 28.5112 295.55 28.0635 295.55 27.5112V25.5112Z" fill="#292A29"/>
<path d="M46.5764 26.9564C49.0752 26.9564 50.8291 25.3146 50.8291 22.912V22.896C50.8291 20.6856 49.2674 19.0838 47.113 19.0838C46.0238 19.0838 45.1269 19.5483 44.6463 20.3252H44.5102L44.8305 16.8093H50.1563V15.1115H43.2208L42.6602 21.8789H44.4301C44.5663 21.6226 44.7585 21.3983 44.9667 21.2222C45.3912 20.8377 45.9518 20.6455 46.6005 20.6455C47.9219 20.6455 48.8669 21.5906 48.8669 22.936V22.952C48.8669 24.3135 47.9379 25.2666 46.5845 25.2666C45.3992 25.2666 44.5262 24.5137 44.374 23.5687L44.366 23.5127H42.46L42.468 23.6168C42.6201 25.5148 44.2139 26.9564 46.5764 26.9564ZM54.5131 19.1799C55.2499 19.1799 55.7865 18.6193 55.7865 17.9146C55.7865 17.2018 55.2499 16.6492 54.5131 16.6492C53.7843 16.6492 53.2397 17.2018 53.2397 17.9146C53.2397 18.6193 53.7843 19.1799 54.5131 19.1799ZM54.5131 25.1224C55.2499 25.1224 55.7865 24.5698 55.7865 23.857C55.7865 23.1443 55.2499 22.5916 54.5131 22.5916C53.7843 22.5916 53.2397 23.1443 53.2397 23.857C53.2397 24.5698 53.7843 25.1224 54.5131 25.1224ZM61.2484 26.6681H63.3147V15.1115H61.2564L58.2371 17.2338V19.1799L61.1123 17.1457H61.2484V26.6681ZM70.7067 26.9003C73.2695 26.9003 75.0234 25.4828 75.0234 23.4486V23.4326C75.0234 21.8308 73.8942 20.8217 72.1964 20.6615V20.6215C73.5819 20.3332 74.615 19.3802 74.615 17.9466V17.9306C74.615 16.1206 73.0693 14.8792 70.6907 14.8792C68.3602 14.8792 66.7825 16.1927 66.6063 18.1949L66.5983 18.283H68.5204L68.5284 18.2029C68.6325 17.1697 69.4734 16.521 70.6907 16.521C71.9241 16.521 72.6368 17.1457 72.6368 18.2029V18.2189C72.6368 19.228 71.7879 19.9488 70.5145 19.9488H69.1931V21.4864H70.5546C72.0362 21.4864 72.9332 22.1592 72.9332 23.3765V23.3925C72.9332 24.4657 72.0442 25.2105 70.7067 25.2105C69.3533 25.2105 68.4483 24.5137 68.3362 23.5367L68.3281 23.4486H66.358L66.366 23.5447C66.5182 25.5228 68.176 26.9003 70.7067 26.9003Z" fill="#292A29"/>
<rect x="0.189941" y="40" width="390" height="64" fill="white"/>
<path d="M132.022 66.4H140.482V68.722H134.722V71.548H139.402V73.762H134.722V76.678H140.68V79H132.022V66.4ZM150.951 76.858V79H149.655C148.485 79 147.909 78.496 147.945 77.488C147.603 78.028 147.189 78.424 146.703 78.694C146.199 78.982 145.605 79.108 144.921 79.108C143.877 79.108 143.049 78.874 142.419 78.406C141.789 77.938 141.483 77.254 141.483 76.39C141.483 75.418 141.843 74.662 142.563 74.122C143.283 73.582 144.345 73.312 145.731 73.312H147.567V72.862C147.567 72.448 147.405 72.124 147.099 71.872C146.775 71.62 146.361 71.494 145.839 71.494C145.371 71.494 144.975 71.602 144.687 71.8C144.381 72.016 144.201 72.286 144.147 72.628H141.699C141.771 71.692 142.203 70.954 142.959 70.432C143.715 69.91 144.705 69.64 145.965 69.64C147.261 69.64 148.269 69.928 148.989 70.504C149.709 71.08 150.069 71.926 150.069 73.006V76.264C150.069 76.498 150.105 76.66 150.213 76.732C150.303 76.822 150.447 76.858 150.663 76.858H150.951ZM147.567 75.004H145.713C145.173 75.004 144.759 75.112 144.471 75.328C144.183 75.544 144.039 75.832 144.039 76.21C144.039 76.534 144.147 76.804 144.399 76.984C144.651 77.182 144.975 77.272 145.407 77.272C146.055 77.272 146.577 77.092 146.973 76.714C147.351 76.336 147.549 75.832 147.567 75.184V75.004ZM151.663 69.748H159.493V71.476L154.867 76.858H159.709V79H151.447V77.272L156.073 71.89H151.663V69.748ZM163.308 66.31C163.578 66.58 163.722 66.922 163.722 67.318C163.722 67.732 163.578 68.074 163.308 68.344C163.02 68.632 162.678 68.758 162.264 68.758C161.832 68.758 161.49 68.632 161.202 68.344C160.914 68.074 160.788 67.732 160.788 67.318C160.788 66.922 160.914 66.58 161.202 66.31C161.49 66.04 161.832 65.896 162.264 65.896C162.678 65.896 163.02 66.04 163.308 66.31ZM160.986 69.748H163.524V79H160.986V69.748ZM172.835 70.234C173.483 70.63 173.987 71.17 174.347 71.89C174.707 72.61 174.905 73.456 174.905 74.392C174.905 75.346 174.707 76.174 174.347 76.876C173.987 77.596 173.483 78.136 172.835 78.532C172.187 78.928 171.449 79.108 170.621 79.108C169.433 79.108 168.497 78.694 167.831 77.83V82.6H165.293V69.748H167.507L167.759 71.026C168.065 70.612 168.461 70.27 168.947 70.018C169.433 69.766 169.991 69.64 170.639 69.64C171.467 69.64 172.187 69.838 172.835 70.234ZM171.701 76.3C172.115 75.796 172.331 75.148 172.331 74.356C172.331 73.564 172.115 72.934 171.701 72.448C171.269 71.962 170.729 71.71 170.045 71.71C169.361 71.71 168.803 71.962 168.407 72.448C167.993 72.934 167.795 73.564 167.795 74.356C167.795 75.166 167.993 75.814 168.407 76.3C168.803 76.804 169.361 77.038 170.045 77.038C170.729 77.038 171.269 76.804 171.701 76.3ZM185.422 76.858V79H184.126C182.956 79 182.38 78.496 182.416 77.488C182.074 78.028 181.66 78.424 181.174 78.694C180.67 78.982 180.076 79.108 179.392 79.108C178.348 79.108 177.52 78.874 176.89 78.406C176.26 77.938 175.954 77.254 175.954 76.39C175.954 75.418 176.314 74.662 177.034 74.122C177.754 73.582 178.816 73.312 180.202 73.312H182.038V72.862C182.038 72.448 181.876 72.124 181.57 71.872C181.246 71.62 180.832 71.494 180.31 71.494C179.842 71.494 179.446 71.602 179.158 71.8C178.852 72.016 178.672 72.286 178.618 72.628H176.17C176.242 71.692 176.674 70.954 177.43 70.432C178.186 69.91 179.176 69.64 180.436 69.64C181.732 69.64 182.74 69.928 183.46 70.504C184.18 71.08 184.54 71.926 184.54 73.006V76.264C184.54 76.498 184.576 76.66 184.684 76.732C184.774 76.822 184.918 76.858 185.134 76.858H185.422ZM182.038 75.004H180.184C179.644 75.004 179.23 75.112 178.942 75.328C178.654 75.544 178.51 75.832 178.51 76.21C178.51 76.534 178.618 76.804 178.87 76.984C179.122 77.182 179.446 77.272 179.878 77.272C180.526 77.272 181.048 77.092 181.444 76.714C181.822 76.336 182.02 75.832 182.038 75.184V75.004ZM187.888 69.748L190.138 76.39L192.334 69.748H195.052L190.948 80.314C190.732 80.89 190.516 81.322 190.336 81.646C190.138 81.97 189.886 82.204 189.598 82.366C189.31 82.528 188.932 82.6 188.464 82.6H185.998V80.458H187.402C187.726 80.458 187.96 80.404 188.104 80.296C188.248 80.188 188.374 79.99 188.518 79.666L188.752 79.054L185.188 69.748H187.888ZM198.715 66.958C199.057 67.39 199.237 67.966 199.237 68.65C199.237 69.658 198.931 70.414 198.337 70.936C197.725 71.476 196.915 71.746 195.871 71.746V70.432C196.411 70.432 196.843 70.306 197.131 70.072C197.419 69.856 197.581 69.568 197.581 69.208C197.581 69.1 197.563 69.01 197.563 68.956C197.365 69.064 197.167 69.1 196.987 69.1C196.627 69.1 196.339 68.992 196.105 68.758C195.871 68.524 195.763 68.182 195.763 67.732C195.763 67.336 195.907 67.012 196.213 66.724C196.519 66.436 196.897 66.292 197.347 66.292C197.905 66.292 198.355 66.526 198.715 66.958ZM202.431 75.922C202.467 76.336 202.665 76.66 203.025 76.912C203.385 77.164 203.835 77.29 204.411 77.29C204.951 77.29 205.365 77.218 205.689 77.038C205.995 76.858 206.157 76.606 206.157 76.282C206.157 76.048 206.085 75.868 205.941 75.742C205.797 75.634 205.581 75.544 205.329 75.49C205.059 75.436 204.627 75.364 204.033 75.292C203.205 75.184 202.539 75.058 201.999 74.878C201.459 74.716 201.027 74.446 200.703 74.086C200.379 73.726 200.217 73.258 200.217 72.646C200.217 72.052 200.379 71.53 200.703 71.062C201.027 70.594 201.495 70.234 202.107 69.982C202.701 69.73 203.385 69.604 204.177 69.604C205.437 69.622 206.445 69.892 207.219 70.414C207.993 70.954 208.407 71.674 208.479 72.61H206.067C206.031 72.268 205.833 71.98 205.509 71.764C205.185 71.548 204.753 71.422 204.249 71.422C203.763 71.422 203.367 71.512 203.079 71.692C202.791 71.872 202.647 72.124 202.647 72.412C202.647 72.628 202.719 72.79 202.881 72.898C203.025 73.006 203.241 73.096 203.493 73.132C203.745 73.186 204.159 73.24 204.753 73.294C205.995 73.438 206.949 73.708 207.615 74.104C208.281 74.5 208.623 75.166 208.623 76.102C208.623 76.714 208.443 77.236 208.083 77.686C207.723 78.154 207.237 78.496 206.607 78.748C205.977 79 205.257 79.108 204.429 79.108C203.133 79.108 202.089 78.838 201.297 78.262C200.487 77.686 200.055 76.912 200.019 75.922H202.431ZM214.061 66.4H224.033V68.722H220.397V79H217.697V68.722H214.061V66.4ZM223.903 71.89C224.299 71.17 224.839 70.63 225.541 70.234C226.243 69.838 227.053 69.64 227.989 69.64C228.925 69.64 229.735 69.838 230.455 70.198C231.175 70.558 231.733 71.08 232.129 71.746C232.525 72.412 232.741 73.186 232.759 74.086C232.759 74.41 232.723 74.698 232.687 74.95H225.973V75.022C226.027 75.706 226.243 76.228 226.621 76.606C226.981 77.002 227.503 77.182 228.151 77.182C228.655 77.182 229.087 77.074 229.429 76.858C229.771 76.642 230.005 76.3 230.113 75.868H232.615C232.507 76.48 232.273 77.038 231.913 77.524C231.535 78.028 231.049 78.406 230.437 78.694C229.825 78.982 229.123 79.108 228.331 79.108C227.287 79.108 226.405 78.928 225.649 78.532C224.893 78.154 224.317 77.614 223.921 76.894C223.525 76.174 223.327 75.346 223.327 74.392C223.327 73.438 223.507 72.61 223.903 71.89ZM230.221 73.294C230.131 72.736 229.897 72.304 229.519 71.998C229.141 71.692 228.673 71.53 228.097 71.53C227.539 71.53 227.071 71.692 226.693 72.016C226.315 72.34 226.099 72.754 226.027 73.294H230.221ZM243.254 76.858V79H241.958C240.788 79 240.212 78.496 240.248 77.488C239.906 78.028 239.492 78.424 239.006 78.694C238.502 78.982 237.908 79.108 237.224 79.108C236.18 79.108 235.352 78.874 234.722 78.406C234.092 77.938 233.786 77.254 233.786 76.39C233.786 75.418 234.146 74.662 234.866 74.122C235.586 73.582 236.648 73.312 238.034 73.312H239.87V72.862C239.87 72.448 239.708 72.124 239.402 71.872C239.078 71.62 238.664 71.494 238.142 71.494C237.674 71.494 237.278 71.602 236.99 71.8C236.684 72.016 236.504 72.286 236.45 72.628H234.002C234.074 71.692 234.506 70.954 235.262 70.432C236.018 69.91 237.008 69.64 238.268 69.64C239.564 69.64 240.572 69.928 241.292 70.504C242.012 71.08 242.372 71.926 242.372 73.006V76.264C242.372 76.498 242.408 76.66 242.516 76.732C242.606 76.822 242.75 76.858 242.966 76.858H243.254ZM239.87 75.004H238.016C237.476 75.004 237.062 75.112 236.774 75.328C236.486 75.544 236.342 75.832 236.342 76.21C236.342 76.534 236.45 76.804 236.702 76.984C236.954 77.182 237.278 77.272 237.71 77.272C238.358 77.272 238.88 77.092 239.276 76.714C239.654 76.336 239.852 75.832 239.87 75.184V75.004ZM257.79 70.63C258.402 71.296 258.726 72.394 258.726 73.924V79.018H256.188V73.834C256.188 72.43 255.648 71.728 254.586 71.728C254.028 71.728 253.578 71.926 253.254 72.322C252.912 72.718 252.75 73.258 252.75 73.942V79.018H250.212V73.834C250.212 72.43 249.672 71.728 248.592 71.728C248.034 71.728 247.584 71.944 247.26 72.34C246.936 72.736 246.774 73.276 246.774 73.96V79.018H244.236V69.748H246.45L246.684 70.9C246.99 70.504 247.368 70.198 247.8 69.982C248.232 69.766 248.772 69.658 249.42 69.64C250.734 69.64 251.652 70.162 252.174 71.206C252.498 70.702 252.948 70.324 253.488 70.054C254.028 69.784 254.658 69.64 255.36 69.64C256.35 69.64 257.16 69.982 257.79 70.63Z" fill="#292A29"/>
<path d="M390.19 103.5H0.189941V104.5H390.19V103.5Z" fill="#E7E8E7" mask="url(#path-1-outside-1_2098_3350)"/>
</svg>
