<svg width="357" height="40" viewBox="0 0 357 40" fill="none" xmlns="http://www.w3.org/2000/svg">
<rect x="0.592822" y="0.2" width="303.194" height="39.6" rx="12.0971" fill="white"/>
<path d="M11.0328 22.336H12.4728C12.5848 23.84 13.7528 24.832 15.4648 24.832C16.9688 24.832 18.0408 24.144 18.0408 22.928C18.0408 21.536 16.6648 21.248 14.9688 20.96C13.1608 20.656 11.3048 20.064 11.3048 17.888C11.3048 15.984 12.8568 14.704 15.1288 14.704C17.6248 14.704 19.1608 16.096 19.2888 18.112H17.8488C17.6888 16.816 16.6488 15.968 15.1288 15.968C13.6728 15.968 12.6968 16.608 12.6968 17.808C12.6968 19.152 14.0568 19.424 15.7368 19.712C17.5608 20.016 19.4328 20.624 19.4328 22.8C19.4328 24.736 17.8008 26.096 15.4488 26.096C12.7128 26.096 11.1128 24.544 11.0328 22.336ZM24.7676 26.096C22.3196 26.096 20.7196 24.416 20.7196 21.92C20.7196 19.44 22.2876 17.744 24.5916 17.744C26.8956 17.744 28.3996 19.2 28.4636 21.616C28.4636 21.792 28.4476 21.984 28.4316 22.176H22.0956V22.288C22.1436 23.84 23.1196 24.928 24.6716 24.928C25.8236 24.928 26.7196 24.32 26.9916 23.264H28.3196C27.9996 24.896 26.6556 26.096 24.7676 26.096ZM22.1756 21.088H27.0556C26.9276 19.68 25.9676 18.896 24.6076 18.896C23.4076 18.896 22.3036 19.76 22.1756 21.088ZM37.1767 24.8H37.5927V26H36.8727C35.7847 26 35.4167 25.536 35.4007 24.736C34.8887 25.472 34.0727 26.096 32.6647 26.096C30.8727 26.096 29.6567 25.2 29.6567 23.712C29.6567 22.08 30.7927 21.168 32.9367 21.168H35.3367V20.608C35.3367 19.552 34.5847 18.912 33.3047 18.912C32.1527 18.912 31.3847 19.456 31.2247 20.288H29.9127C30.1047 18.688 31.4007 17.744 33.3687 17.744C35.4487 17.744 36.6487 18.784 36.6487 20.688V24.256C36.6487 24.688 36.8087 24.8 37.1767 24.8ZM35.3367 22.672V22.272H32.8087C31.6407 22.272 30.9847 22.704 30.9847 23.632C30.9847 24.432 31.6727 24.976 32.7607 24.976C34.3927 24.976 35.3367 24.032 35.3367 22.672ZM42.3773 17.84H42.7453V19.12H42.0893C40.3773 19.12 39.9133 20.544 39.9133 21.84V26H38.6013V17.84H39.7373L39.9133 19.072C40.2973 18.448 40.9213 17.84 42.3773 17.84ZM47.0778 26.096C44.6938 26.096 43.1258 24.48 43.1258 21.936C43.1258 19.44 44.7418 17.744 47.1098 17.744C49.1098 17.744 50.3738 18.864 50.7098 20.656H49.3338C49.0938 19.568 48.2938 18.912 47.0938 18.912C45.5258 18.912 44.4698 20.16 44.4698 21.936C44.4698 23.712 45.5258 24.928 47.0938 24.928C48.2618 24.928 49.0618 24.256 49.3178 23.216H50.7098C50.3898 24.976 49.0618 26.096 47.0778 26.096ZM56.1482 17.744C57.9722 17.744 59.4602 18.752 59.4602 21.456V26H58.1482V21.536C58.1482 19.84 57.3322 18.944 55.9242 18.944C54.4042 18.944 53.4602 20.08 53.4602 21.92V26H52.1482V14.8H53.4602V19.184C53.9402 18.416 54.7722 17.744 56.1482 17.744Z" fill="#B5B6B5"/>
<path d="M284.764 23.0743L289.393 27.7279M279.64 25.1238C275.679 25.1238 272.467 21.9122 272.467 17.9505C272.467 13.9888 275.679 10.7772 279.64 10.7772C283.602 10.7772 286.814 13.9888 286.814 17.9505C286.814 21.9122 283.602 25.1238 279.64 25.1238Z" stroke="#8D8E8D" stroke-width="2.04952" stroke-linecap="round" stroke-linejoin="round"/>
<rect x="0.592822" y="0.2" width="303.194" height="39.6" rx="12.0971" stroke="#2C3E53" stroke-width="0.4"/>
<rect x="315.987" width="40" height="40" rx="8" fill="#F2F1F1"/>
<rect x="323.987" y="8" width="24" height="24" rx="8" fill="#F2F1F1"/>
<path d="M333.987 26H337.987V24H333.987V26ZM326.987 14V16H344.987V14H326.987ZM329.987 21H341.987V19H329.987V21Z" fill="#8D8E8D"/>
</svg>
