<svg width="375" height="117" viewBox="0 0 375 117" fill="none" xmlns="http://www.w3.org/2000/svg">
<rect x="16.7651" y="22.5752" width="356.85" height="54.8496" rx="15.4248" fill="white"/>
<g filter="url(#filter0_dd_2098_3427)">
<rect x="24.1899" y="30" width="165" height="40" rx="8" fill="#11453B"/>
<path d="M60.2164 56L64.4084 44.8H66.6004L70.7764 56H68.8084L67.7524 53.232H63.1604L62.1204 56H60.2164ZM63.6724 51.664H67.2404L65.4484 46.784L63.6724 51.664ZM71.7489 44.8H73.4769V56H71.7489V44.8ZM75.1708 44.8H76.8988V56H75.1708V44.8ZM82.8624 44.8H90.1744V46.432H84.7024V49.536H89.2144V51.12H84.7024V54.368H90.3664V56H82.8624V44.8ZM103.35 48.592C103.91 49.168 104.198 50.096 104.198 51.376V56H102.47V51.392C102.47 50.688 102.326 50.144 102.038 49.76C101.75 49.392 101.318 49.2 100.758 49.2C100.15 49.2 99.686 49.424 99.334 49.84C98.982 50.256 98.822 50.832 98.822 51.568V56H97.078V51.392C97.078 50.672 96.918 50.128 96.63 49.76C96.342 49.392 95.91 49.2 95.35 49.2C94.758 49.2 94.294 49.424 93.942 49.856C93.59 50.304 93.43 50.88 93.43 51.616V56H91.702V47.808H93.206L93.398 48.88C93.974 48.112 94.774 47.728 95.798 47.712C96.374 47.712 96.87 47.84 97.318 48.08C97.75 48.336 98.086 48.704 98.326 49.2C98.614 48.736 98.982 48.368 99.462 48.112C99.926 47.856 100.486 47.712 101.158 47.712C102.054 47.712 102.774 48.016 103.35 48.592ZM112.149 48.224C112.725 48.56 113.189 49.04 113.525 49.68C113.845 50.32 114.021 51.056 114.021 51.904C114.021 52.736 113.845 53.472 113.525 54.112C113.189 54.752 112.725 55.232 112.149 55.584C111.557 55.936 110.885 56.096 110.149 56.096C109.541 56.096 109.013 55.984 108.565 55.76C108.117 55.536 107.749 55.232 107.493 54.848V59.2H105.765V47.808H107.269L107.477 49.024C108.133 48.16 109.029 47.712 110.149 47.712C110.885 47.712 111.557 47.888 112.149 48.224ZM111.589 53.872C112.037 53.36 112.261 52.704 112.261 51.904C112.261 51.104 112.037 50.448 111.589 49.936C111.141 49.44 110.565 49.184 109.861 49.184C109.141 49.184 108.565 49.44 108.133 49.936C107.685 50.432 107.477 51.072 107.477 51.872C107.477 52.704 107.685 53.36 108.133 53.872C108.565 54.384 109.141 54.64 109.861 54.64C110.565 54.64 111.141 54.384 111.589 53.872ZM115.405 44.8H117.133V56H115.405V44.8ZM120.507 55.584C119.867 55.232 119.387 54.752 119.035 54.112C118.683 53.472 118.523 52.736 118.523 51.904C118.523 51.088 118.683 50.368 119.035 49.728C119.387 49.088 119.867 48.592 120.507 48.24C121.147 47.888 121.867 47.712 122.699 47.712C123.515 47.712 124.235 47.888 124.875 48.24C125.515 48.592 125.995 49.088 126.347 49.728C126.699 50.368 126.875 51.088 126.875 51.904C126.875 52.736 126.699 53.472 126.347 54.112C125.995 54.752 125.515 55.232 124.875 55.584C124.235 55.936 123.515 56.096 122.699 56.096C121.867 56.096 121.147 55.936 120.507 55.584ZM124.443 53.872C124.891 53.36 125.115 52.704 125.115 51.904C125.115 51.104 124.891 50.464 124.443 49.952C123.995 49.44 123.419 49.184 122.699 49.184C121.963 49.184 121.387 49.44 120.955 49.952C120.507 50.464 120.299 51.104 120.299 51.904C120.299 52.704 120.507 53.36 120.955 53.872C121.387 54.384 121.963 54.624 122.699 54.624C123.419 54.624 123.995 54.384 124.443 53.872ZM128.976 47.808L131.264 54.128L133.488 47.808H135.328L131.616 57.28C131.424 57.776 131.248 58.16 131.088 58.416C130.928 58.672 130.72 58.88 130.496 59.008C130.256 59.136 129.936 59.2 129.552 59.2H127.696V57.68H128.912C129.232 57.68 129.472 57.632 129.6 57.536C129.728 57.44 129.856 57.2 130 56.848L130.336 56.064L127.136 47.808H128.976ZM136.082 49.712C136.418 49.072 136.882 48.592 137.49 48.24C138.098 47.888 138.786 47.712 139.57 47.712C140.354 47.712 141.042 47.872 141.65 48.192C142.258 48.512 142.722 48.976 143.074 49.552C143.426 50.144 143.602 50.832 143.618 51.616C143.618 51.84 143.602 52.048 143.57 52.272H137.394V52.368C137.426 53.088 137.65 53.648 138.066 54.064C138.466 54.48 139.01 54.688 139.682 54.688C140.21 54.688 140.658 54.576 141.026 54.32C141.378 54.064 141.618 53.712 141.746 53.248H143.474C143.314 54.08 142.914 54.768 142.258 55.296C141.602 55.84 140.786 56.096 139.81 56.096C138.946 56.096 138.21 55.936 137.57 55.584C136.93 55.232 136.45 54.752 136.098 54.112C135.746 53.488 135.586 52.752 135.586 51.92C135.586 51.088 135.746 50.352 136.082 49.712ZM141.858 51.008C141.778 50.416 141.538 49.952 141.138 49.616C140.738 49.28 140.242 49.104 139.634 49.104C139.058 49.104 138.578 49.28 138.162 49.632C137.746 49.984 137.522 50.432 137.458 51.008H141.858ZM145.207 49.712C145.543 49.072 146.007 48.592 146.615 48.24C147.223 47.888 147.911 47.712 148.695 47.712C149.479 47.712 150.167 47.872 150.775 48.192C151.383 48.512 151.847 48.976 152.199 49.552C152.551 50.144 152.727 50.832 152.743 51.616C152.743 51.84 152.727 52.048 152.695 52.272H146.519V52.368C146.551 53.088 146.775 53.648 147.191 54.064C147.591 54.48 148.135 54.688 148.807 54.688C149.335 54.688 149.783 54.576 150.151 54.32C150.503 54.064 150.743 53.712 150.871 53.248H152.599C152.439 54.08 152.039 54.768 151.383 55.296C150.727 55.84 149.911 56.096 148.935 56.096C148.071 56.096 147.335 55.936 146.695 55.584C146.055 55.232 145.575 54.752 145.223 54.112C144.871 53.488 144.711 52.752 144.711 51.92C144.711 51.088 144.871 50.352 145.207 49.712ZM150.983 51.008C150.903 50.416 150.663 49.952 150.263 49.616C149.863 49.28 149.367 49.104 148.759 49.104C148.183 49.104 147.703 49.28 147.287 49.632C146.871 49.984 146.647 50.432 146.583 51.008H150.983Z" fill="white"/>
</g>
<rect x="201.19" y="30" width="165" height="40" rx="8" fill="#F2F1F1"/>
<path d="M237.3 44.8H240.868C242.004 44.8 242.996 45.04 243.86 45.504C244.708 45.984 245.364 46.64 245.828 47.472C246.276 48.32 246.516 49.296 246.516 50.4C246.516 51.504 246.276 52.48 245.828 53.328C245.364 54.176 244.708 54.832 243.86 55.296C242.996 55.776 242.004 56 240.868 56H237.3V44.8ZM240.868 54.4C242.068 54.4 242.996 54.048 243.652 53.328C244.292 52.608 244.628 51.632 244.628 50.4C244.628 49.184 244.292 48.208 243.652 47.488C242.996 46.768 242.068 46.4 240.868 46.4H239.14V54.4H240.868ZM248.144 49.712C248.48 49.072 248.944 48.592 249.552 48.24C250.16 47.888 250.848 47.712 251.632 47.712C252.416 47.712 253.104 47.872 253.712 48.192C254.32 48.512 254.784 48.976 255.136 49.552C255.488 50.144 255.664 50.832 255.68 51.616C255.68 51.84 255.664 52.048 255.632 52.272H249.456V52.368C249.488 53.088 249.712 53.648 250.128 54.064C250.528 54.48 251.072 54.688 251.744 54.688C252.272 54.688 252.72 54.576 253.088 54.32C253.44 54.064 253.68 53.712 253.808 53.248H255.536C255.376 54.08 254.976 54.768 254.32 55.296C253.664 55.84 252.848 56.096 251.872 56.096C251.008 56.096 250.272 55.936 249.632 55.584C248.992 55.232 248.512 54.752 248.16 54.112C247.808 53.488 247.648 52.752 247.648 51.92C247.648 51.088 247.808 50.352 248.144 49.712ZM253.92 51.008C253.84 50.416 253.6 49.952 253.2 49.616C252.8 49.28 252.304 49.104 251.696 49.104C251.12 49.104 250.64 49.28 250.224 49.632C249.808 49.984 249.584 50.432 249.52 51.008H253.92ZM263.461 48.224C264.037 48.56 264.501 49.04 264.837 49.68C265.157 50.32 265.333 51.056 265.333 51.904C265.333 52.736 265.157 53.472 264.837 54.112C264.501 54.752 264.037 55.232 263.461 55.584C262.869 55.936 262.197 56.096 261.461 56.096C260.853 56.096 260.325 55.984 259.877 55.76C259.429 55.536 259.061 55.232 258.805 54.848V59.2H257.077V47.808H258.581L258.789 49.024C259.445 48.16 260.341 47.712 261.461 47.712C262.197 47.712 262.869 47.888 263.461 48.224ZM262.901 53.872C263.349 53.36 263.573 52.704 263.573 51.904C263.573 51.104 263.349 50.448 262.901 49.936C262.453 49.44 261.877 49.184 261.173 49.184C260.453 49.184 259.877 49.44 259.445 49.936C258.997 50.432 258.789 51.072 258.789 51.872C258.789 52.704 258.997 53.36 259.445 53.872C259.877 54.384 260.453 54.64 261.173 54.64C261.877 54.64 262.453 54.384 262.901 53.872ZM274.558 54.496V56H273.646C273.102 56 272.718 55.888 272.494 55.664C272.254 55.44 272.142 55.12 272.142 54.688C271.518 55.632 270.622 56.096 269.438 56.096C268.51 56.096 267.774 55.888 267.23 55.456C266.67 55.04 266.398 54.448 266.398 53.696C266.398 52.864 266.686 52.208 267.294 51.76C267.886 51.312 268.75 51.072 269.902 51.072H271.966V50.576C271.966 50.128 271.806 49.76 271.486 49.504C271.166 49.248 270.718 49.104 270.158 49.104C269.646 49.104 269.23 49.216 268.91 49.44C268.59 49.664 268.398 49.952 268.334 50.304H266.638C266.718 49.488 267.086 48.848 267.726 48.4C268.366 47.952 269.198 47.712 270.238 47.712C271.326 47.712 272.174 47.968 272.782 48.48C273.374 48.992 273.678 49.728 273.678 50.688V53.92C273.678 54.304 273.854 54.496 274.222 54.496H274.558ZM271.966 52.352H269.822C269.278 52.352 268.878 52.464 268.59 52.672C268.302 52.88 268.158 53.184 268.158 53.584C268.158 53.936 268.286 54.224 268.558 54.432C268.83 54.656 269.198 54.752 269.678 54.752C270.382 54.752 270.942 54.56 271.342 54.176C271.742 53.792 271.95 53.28 271.966 52.64V52.352ZM280.027 47.808V49.424H279.259C278.539 49.424 278.027 49.664 277.707 50.128C277.387 50.592 277.227 51.184 277.227 51.888V56H275.499V47.808H277.035L277.227 49.04C277.451 48.656 277.755 48.368 278.139 48.144C278.507 47.92 279.003 47.808 279.643 47.808H280.027ZM281.124 45.52H282.852V47.808H284.836V49.328H282.852V53.6C282.852 53.92 282.916 54.16 283.044 54.288C283.172 54.416 283.38 54.48 283.7 54.48H285.012V56H283.348C282.564 56 282.004 55.824 281.652 55.456C281.3 55.104 281.124 54.544 281.124 53.776V45.52ZM297.6 48.592C298.16 49.168 298.448 50.096 298.448 51.376V56H296.72V51.392C296.72 50.688 296.576 50.144 296.288 49.76C296 49.392 295.568 49.2 295.008 49.2C294.4 49.2 293.936 49.424 293.584 49.84C293.232 50.256 293.072 50.832 293.072 51.568V56H291.328V51.392C291.328 50.672 291.168 50.128 290.88 49.76C290.592 49.392 290.16 49.2 289.6 49.2C289.008 49.2 288.544 49.424 288.192 49.856C287.84 50.304 287.68 50.88 287.68 51.616V56H285.952V47.808H287.456L287.648 48.88C288.224 48.112 289.024 47.728 290.048 47.712C290.624 47.712 291.12 47.84 291.568 48.08C292 48.336 292.336 48.704 292.576 49.2C292.864 48.736 293.232 48.368 293.712 48.112C294.176 47.856 294.736 47.712 295.408 47.712C296.304 47.712 297.024 48.016 297.6 48.592ZM300.207 49.712C300.543 49.072 301.007 48.592 301.615 48.24C302.223 47.888 302.911 47.712 303.695 47.712C304.479 47.712 305.167 47.872 305.775 48.192C306.383 48.512 306.847 48.976 307.199 49.552C307.551 50.144 307.727 50.832 307.743 51.616C307.743 51.84 307.727 52.048 307.695 52.272H301.519V52.368C301.551 53.088 301.775 53.648 302.191 54.064C302.591 54.48 303.135 54.688 303.807 54.688C304.335 54.688 304.783 54.576 305.151 54.32C305.503 54.064 305.743 53.712 305.871 53.248H307.599C307.439 54.08 307.039 54.768 306.383 55.296C305.727 55.84 304.911 56.096 303.935 56.096C303.071 56.096 302.335 55.936 301.695 55.584C301.055 55.232 300.575 54.752 300.223 54.112C299.871 53.488 299.711 52.752 299.711 51.92C299.711 51.088 299.871 50.352 300.207 49.712ZM305.983 51.008C305.903 50.416 305.663 49.952 305.263 49.616C304.863 49.28 304.367 49.104 303.759 49.104C303.183 49.104 302.703 49.28 302.287 49.632C301.871 49.984 301.647 50.432 301.583 51.008H305.983ZM315.828 48.608C316.436 49.216 316.756 50.176 316.756 51.488V56H315.012V51.584C315.012 50.816 314.836 50.224 314.516 49.808C314.18 49.408 313.7 49.2 313.06 49.2C312.372 49.2 311.828 49.44 311.444 49.92C311.06 50.4 310.868 51.04 310.868 51.872V56H309.14V47.808H310.644L310.836 48.88C311.444 48.112 312.324 47.712 313.46 47.712C314.42 47.712 315.22 48.016 315.828 48.608ZM318.855 49.328H317.431V47.808H318.855V45.52H320.599V47.808H322.567V49.328H320.599V53.6C320.599 53.92 320.663 54.16 320.791 54.288C320.919 54.416 321.127 54.48 321.447 54.48H322.759V56H321.095C320.311 56 319.735 55.824 319.383 55.456C319.031 55.104 318.855 54.544 318.855 53.776V49.328ZM325.062 53.296C325.094 53.728 325.286 54.08 325.654 54.352C326.022 54.624 326.502 54.752 327.094 54.752C327.606 54.752 328.038 54.656 328.358 54.464C328.678 54.272 328.854 54 328.854 53.664C328.854 53.392 328.774 53.184 328.63 53.04C328.47 52.912 328.278 52.816 328.022 52.752C327.766 52.688 327.382 52.624 326.87 52.56C326.15 52.48 325.558 52.368 325.094 52.224C324.63 52.08 324.262 51.856 323.974 51.536C323.686 51.216 323.558 50.8 323.558 50.256C323.558 49.76 323.686 49.312 323.974 48.928C324.262 48.544 324.646 48.24 325.142 48.016C325.638 47.808 326.198 47.696 326.838 47.696C327.862 47.696 328.71 47.936 329.35 48.384C329.99 48.848 330.342 49.488 330.406 50.32H328.726C328.678 49.952 328.486 49.648 328.166 49.408C327.83 49.168 327.414 49.04 326.918 49.04C326.406 49.04 326.006 49.136 325.702 49.328C325.382 49.52 325.238 49.792 325.238 50.112C325.238 50.368 325.302 50.544 325.462 50.672C325.622 50.8 325.814 50.88 326.054 50.928C326.278 50.976 326.662 51.024 327.19 51.088C327.894 51.168 328.486 51.28 328.966 51.44C329.446 51.6 329.83 51.84 330.118 52.176C330.406 52.512 330.55 52.96 330.55 53.536C330.55 54.048 330.39 54.512 330.102 54.896C329.798 55.28 329.382 55.584 328.87 55.792C328.342 56 327.75 56.096 327.11 56.096C326.006 56.096 325.11 55.856 324.438 55.36C323.766 54.864 323.414 54.176 323.398 53.296H325.062Z" fill="#11453B"/>
<rect x="16.7651" y="22.5752" width="356.85" height="54.8496" rx="15.4248" stroke="#E7E8E7" stroke-width="1.15042"/>
<defs>
<filter id="filter0_dd_2098_3427" x="-13.8323" y="0.849643" width="241.044" height="116.044" filterUnits="userSpaceOnUse" color-interpolation-filters="sRGB">
<feFlood flood-opacity="0" result="BackgroundImageFix"/>
<feColorMatrix in="SourceAlpha" type="matrix" values="0 0 0 0 0 0 0 0 0 0 0 0 0 0 0 0 0 0 127 0" result="hardAlpha"/>
<feMorphology radius="2.53481" operator="erode" in="SourceAlpha" result="effect1_dropShadow_2098_3427"/>
<feOffset dy="8.87185"/>
<feGaussianBlur stdDeviation="20.2785"/>
<feColorMatrix type="matrix" values="0 0 0 0 0.0941176 0 0 0 0 0.152941 0 0 0 0 0.294118 0 0 0 0.12 0"/>
<feBlend mode="normal" in2="BackgroundImageFix" result="effect1_dropShadow_2098_3427"/>
<feColorMatrix in="SourceAlpha" type="matrix" values="0 0 0 0 0 0 0 0 0 0 0 0 0 0 0 0 0 0 127 0" result="hardAlpha"/>
<feMorphology radius="3.80222" operator="erode" in="SourceAlpha" result="effect2_dropShadow_2098_3427"/>
<feOffset dy="5.06963"/>
<feGaussianBlur stdDeviation="6.97074"/>
<feColorMatrix type="matrix" values="0 0 0 0 0.0941176 0 0 0 0 0.152941 0 0 0 0 0.294118 0 0 0 0.12 0"/>
<feBlend mode="normal" in2="effect1_dropShadow_2098_3427" result="effect2_dropShadow_2098_3427"/>
<feBlend mode="normal" in="SourceGraphic" in2="effect2_dropShadow_2098_3427" result="shape"/>
</filter>
</defs>
</svg>
