<svg width="391" height="216" viewBox="0 0 391 216" fill="none" xmlns="http://www.w3.org/2000/svg">
<g filter="url(#filter0_d_6_1404)">
<g clip-path="url(#clip0_6_1404)">
<rect x="16.1899" y="28" width="358" height="120" rx="24" fill="#11453B"/>
<g opacity="0.1">
<path d="M83.3462 34.3089V138.791C3.40938 93.0322 -44.7747 98.8998 -133.732 138.586C-223.658 181.682 -271.262 182.153 -350.81 138.381V34.3089C-269.101 78.2121 -221.999 77.9435 -135.782 34.3089C-44.444 -6.43573 4.01208 -10.1687 83.3462 34.3089Z" fill="#D9EBCD" fill-opacity="0.7"/>
<path d="M517.503 34.3089V138.791C437.566 93.0322 389.382 98.8998 300.425 138.586C210.499 181.682 162.895 182.153 83.3465 138.381V34.3089C165.056 78.2121 212.157 77.9435 298.374 34.3089C389.713 -6.43573 438.169 -10.1687 517.503 34.3089Z" fill="#D9EBCD" fill-opacity="0.7"/>
</g>
<path d="M40.5399 60.2V61.32H43.7179V70H44.9359V61.32H48.1139V60.2H40.5399ZM49.6796 69.622C50.2116 69.93 50.8276 70.084 51.5276 70.084C52.2136 70.084 52.8296 69.93 53.3616 69.622C53.8936 69.314 54.3136 68.894 54.6216 68.334C54.9156 67.788 55.0696 67.158 55.0696 66.43C55.0696 65.716 54.9156 65.086 54.6216 64.526C54.3136 63.98 53.8936 63.546 53.3616 63.238C52.8296 62.93 52.2136 62.776 51.5276 62.776C50.8276 62.776 50.2116 62.93 49.6796 63.238C49.1476 63.546 48.7276 63.98 48.4336 64.526C48.1256 65.086 47.9856 65.716 47.9856 66.43C47.9856 67.158 48.1256 67.788 48.4336 68.334C48.7276 68.894 49.1476 69.314 49.6796 69.622ZM52.7596 68.726C52.3956 68.95 51.9896 69.062 51.5276 69.062C51.0516 69.062 50.6456 68.95 50.2816 68.726C49.9176 68.502 49.6516 68.194 49.4556 67.788C49.2596 67.396 49.1616 66.934 49.1616 66.43C49.1616 65.926 49.2596 65.478 49.4556 65.072C49.6516 64.68 49.9176 64.358 50.2816 64.134C50.6456 63.91 51.0516 63.798 51.5276 63.798C51.9896 63.798 52.3956 63.91 52.7596 64.134C53.1236 64.358 53.4036 64.68 53.5996 65.072C53.7956 65.478 53.8936 65.926 53.8936 66.43C53.8936 66.934 53.7956 67.396 53.5996 67.788C53.4036 68.194 53.1236 68.502 52.7596 68.726ZM57.03 63.91V68.138C57.03 68.782 57.17 69.258 57.45 69.552C57.73 69.86 58.22 70 58.892 70H60.208V68.95H58.962C58.668 68.95 58.458 68.894 58.346 68.768C58.234 68.642 58.178 68.432 58.178 68.124V63.91H59.984V62.86H58.178V60.858H57.03V62.86H55.742V63.91H57.03ZM67.8433 68.95H67.4933C67.1713 68.95 67.0173 68.782 67.0173 68.432V65.352C67.0173 64.526 66.7653 63.896 66.2613 63.448C65.7573 63 65.0573 62.776 64.1473 62.776C63.2793 62.776 62.5793 62.972 62.0473 63.364C61.5153 63.756 61.2073 64.302 61.1233 65.002H62.2713C62.3413 64.638 62.5373 64.358 62.8593 64.134C63.1813 63.91 63.5873 63.798 64.0913 63.798C64.6513 63.798 65.0853 63.938 65.3933 64.19C65.7013 64.456 65.8693 64.82 65.8693 65.282V65.772H63.7693C62.8313 65.772 62.1173 65.968 61.6273 66.346C61.1373 66.738 60.8993 67.284 60.8993 67.998C60.8993 68.642 61.1373 69.16 61.6133 69.524C62.0893 69.902 62.7333 70.084 63.5313 70.084C64.5673 70.084 65.3653 69.692 65.9253 68.894C65.9253 69.258 66.0373 69.538 66.2333 69.72C66.4293 69.916 66.7513 70 67.2133 70H67.8433V68.95ZM65.8693 66.738V67.088C65.8693 67.704 65.6593 68.194 65.2673 68.558C64.8613 68.922 64.3153 69.104 63.6153 69.104C63.1393 69.104 62.7613 69.006 62.4813 68.782C62.2013 68.572 62.0613 68.292 62.0613 67.928C62.0613 67.144 62.5933 66.738 63.6573 66.738H65.8693ZM68.9759 60.2V70H70.1239V60.2H68.9759ZM76.0287 60.2V70H82.4547V68.88H77.2467V65.576H81.4327V64.456H77.2467V61.32H82.2727V60.2H76.0287ZM93.8156 63.532C93.3116 63.028 92.6676 62.776 91.8696 62.776C90.7216 62.776 89.8956 63.238 89.3916 64.134C89.1956 63.686 88.8876 63.35 88.4956 63.126C88.1036 62.902 87.6416 62.776 87.1376 62.776C86.2556 62.776 85.5556 63.14 85.0516 63.84L84.8976 62.86H83.9036V70H85.0516V66.234C85.0516 65.52 85.2196 64.946 85.5556 64.498C85.8916 64.05 86.3536 63.826 86.9416 63.826C87.4876 63.826 87.9076 64.008 88.2156 64.372C88.5096 64.736 88.6636 65.268 88.6636 65.954V70H89.8116V66.178C89.8116 65.45 89.9796 64.876 90.3156 64.456C90.6516 64.036 91.1276 63.826 91.7296 63.826C92.2616 63.826 92.6816 64.008 92.9756 64.372C93.2696 64.736 93.4236 65.268 93.4236 65.954V70H94.5716V65.884C94.5716 64.82 94.3196 64.036 93.8156 63.532ZM101.656 63.21C101.138 62.93 100.55 62.776 99.8923 62.776C98.8563 62.776 98.0303 63.196 97.4423 64.008L97.2883 62.86H96.2943V72.8H97.4423V68.908C97.6663 69.272 97.9883 69.566 98.4083 69.776C98.8143 69.986 99.3043 70.084 99.8923 70.084C100.536 70.084 101.124 69.93 101.656 69.622C102.174 69.314 102.58 68.894 102.874 68.334C103.168 67.788 103.322 67.158 103.322 66.43C103.322 65.674 103.168 65.03 102.874 64.47C102.58 63.924 102.174 63.504 101.656 63.21ZM101.488 68.334C101.054 68.824 100.48 69.062 99.7803 69.062C99.3183 69.062 98.9123 68.95 98.5483 68.726C98.1843 68.502 97.9183 68.194 97.7223 67.788C97.5263 67.382 97.4283 66.92 97.4283 66.402C97.4283 65.898 97.5263 65.45 97.7223 65.058C97.9183 64.666 98.1843 64.358 98.5483 64.134C98.9123 63.91 99.3183 63.798 99.7803 63.798C100.48 63.798 101.054 64.05 101.488 64.54C101.922 65.03 102.146 65.66 102.146 66.43C102.146 67.214 101.922 67.844 101.488 68.334ZM104.884 60.2V70H106.032V60.2H104.884ZM109.297 69.622C109.829 69.93 110.445 70.084 111.145 70.084C111.831 70.084 112.447 69.93 112.979 69.622C113.511 69.314 113.931 68.894 114.239 68.334C114.533 67.788 114.687 67.158 114.687 66.43C114.687 65.716 114.533 65.086 114.239 64.526C113.931 63.98 113.511 63.546 112.979 63.238C112.447 62.93 111.831 62.776 111.145 62.776C110.445 62.776 109.829 62.93 109.297 63.238C108.765 63.546 108.345 63.98 108.051 64.526C107.743 65.086 107.603 65.716 107.603 66.43C107.603 67.158 107.743 67.788 108.051 68.334C108.345 68.894 108.765 69.314 109.297 69.622ZM112.377 68.726C112.013 68.95 111.607 69.062 111.145 69.062C110.669 69.062 110.263 68.95 109.899 68.726C109.535 68.502 109.269 68.194 109.073 67.788C108.877 67.396 108.779 66.934 108.779 66.43C108.779 65.926 108.877 65.478 109.073 65.072C109.269 64.68 109.535 64.358 109.899 64.134C110.263 63.91 110.669 63.798 111.145 63.798C111.607 63.798 112.013 63.91 112.377 64.134C112.741 64.358 113.021 64.68 113.217 65.072C113.413 65.478 113.511 65.926 113.511 66.43C113.511 66.934 113.413 67.396 113.217 67.788C113.021 68.194 112.741 68.502 112.377 68.726ZM116.484 62.86H115.266L118.066 70.056L117.702 70.91C117.59 71.162 117.506 71.344 117.436 71.456C117.366 71.568 117.282 71.638 117.17 71.68C117.058 71.736 116.89 71.75 116.666 71.75H115.644V72.8H117.016C117.338 72.8 117.604 72.758 117.8 72.646C117.996 72.548 118.15 72.394 118.29 72.17C118.416 71.96 118.57 71.638 118.738 71.204L122.028 62.86H120.81L118.682 68.684L116.484 62.86ZM123.029 64.512C122.749 65.072 122.609 65.702 122.609 66.43C122.609 67.158 122.749 67.788 123.043 68.348C123.337 68.908 123.757 69.328 124.289 69.636C124.821 69.944 125.437 70.084 126.151 70.084C126.963 70.084 127.649 69.86 128.209 69.398C128.769 68.936 129.119 68.334 129.259 67.606H128.097C127.971 68.068 127.733 68.432 127.369 68.684C127.005 68.936 126.571 69.062 126.067 69.062C125.395 69.062 124.863 68.852 124.457 68.432C124.037 68.012 123.827 67.452 123.813 66.752V66.654H129.357C129.371 66.43 129.385 66.276 129.385 66.164C129.357 65.478 129.203 64.876 128.923 64.358C128.629 63.854 128.237 63.462 127.733 63.182C127.229 62.916 126.641 62.776 125.997 62.776C125.325 62.776 124.737 62.93 124.233 63.238C123.715 63.546 123.309 63.966 123.029 64.512ZM128.195 65.702H123.883C123.939 65.142 124.163 64.68 124.583 64.316C124.989 63.966 125.465 63.784 126.011 63.784C126.613 63.784 127.117 63.952 127.509 64.288C127.901 64.624 128.139 65.1 128.195 65.702ZM131.113 64.512C130.833 65.072 130.693 65.702 130.693 66.43C130.693 67.158 130.833 67.788 131.127 68.348C131.421 68.908 131.841 69.328 132.373 69.636C132.905 69.944 133.521 70.084 134.235 70.084C135.047 70.084 135.733 69.86 136.293 69.398C136.853 68.936 137.203 68.334 137.343 67.606H136.181C136.055 68.068 135.817 68.432 135.453 68.684C135.089 68.936 134.655 69.062 134.151 69.062C133.479 69.062 132.947 68.852 132.541 68.432C132.121 68.012 131.911 67.452 131.897 66.752V66.654H137.441C137.455 66.43 137.469 66.276 137.469 66.164C137.441 65.478 137.287 64.876 137.007 64.358C136.713 63.854 136.321 63.462 135.817 63.182C135.313 62.916 134.725 62.776 134.081 62.776C133.409 62.776 132.821 62.93 132.317 63.238C131.799 63.546 131.393 63.966 131.113 64.512ZM136.279 65.702H131.967C132.023 65.142 132.247 64.68 132.667 64.316C133.073 63.966 133.549 63.784 134.095 63.784C134.697 63.784 135.201 63.952 135.593 64.288C135.985 64.624 136.223 65.1 136.279 65.702Z" fill="white"/>
<path d="M48.7859 93.4H44.8379V95.304C44.8379 95.864 44.6979 96.34 44.4459 96.732C44.1939 97.124 43.8299 97.292 43.3539 97.292H40.4139V100.624H43.6899C44.1379 100.624 44.5019 100.596 44.7539 100.484V113H48.7859V93.4ZM59.1219 93.4H55.1739V95.304C55.1739 95.864 55.0339 96.34 54.7819 96.732C54.5299 97.124 54.1659 97.292 53.6899 97.292H50.7499V100.624H54.0259C54.4739 100.624 54.8379 100.596 55.0899 100.484V113H59.1219V93.4ZM69.1498 103.732L61.7298 109.892V113H76.0938V109.612H67.5538L71.9498 106.028C73.3218 104.908 74.3298 103.872 75.0018 102.892C75.6738 101.912 76.0098 100.736 76.0098 99.392C76.0098 97.516 75.3658 96.004 74.1058 94.884C72.8458 93.764 71.0818 93.204 68.7858 93.204C67.3578 93.204 66.0978 93.512 65.0338 94.072C63.9418 94.632 63.1018 95.416 62.5138 96.424C61.9258 97.432 61.6458 98.552 61.6458 99.784V100.316H65.7058V100.008C65.7058 98.972 65.9858 98.132 66.5458 97.516C67.1058 96.9 67.8618 96.592 68.7858 96.592C69.7378 96.592 70.4938 96.872 71.0538 97.376C71.6138 97.88 71.9218 98.608 71.9218 99.56C71.9218 100.316 71.6978 101.016 71.2498 101.632C70.8018 102.276 70.1018 102.976 69.1498 103.732ZM78.4226 107.12C78.7306 108.268 79.1786 109.248 79.7666 110.088C80.4386 111.096 81.3066 111.852 82.3706 112.384C83.4346 112.916 84.6386 113.168 85.9826 113.168C87.4106 113.168 88.6706 112.916 89.7906 112.356C90.9106 111.796 91.7506 111.012 92.3666 110.004C92.9826 108.996 93.2906 107.848 93.2906 106.504C93.2906 105.216 93.0106 104.068 92.4506 103.06C91.8906 102.052 91.1066 101.268 90.0986 100.708C89.0906 100.148 87.9426 99.868 86.6546 99.868C85.6466 99.868 84.7506 100.092 83.9386 100.484C83.1266 100.904 82.4826 101.464 82.0346 102.164L81.7826 102.584V102.108C81.7826 100.316 82.1186 98.916 82.7906 97.936C83.4626 96.956 84.4426 96.452 85.7306 96.452C86.5986 96.452 87.3266 96.676 87.9146 97.096C88.4746 97.544 88.8666 98.132 89.0626 98.916H93.0386C92.8146 97.18 92.0586 95.78 90.7706 94.744C89.4826 93.736 87.8866 93.204 86.0386 93.204C84.3866 93.204 82.9586 93.624 81.7546 94.408C80.5226 95.192 79.5986 96.368 78.9546 97.88C78.2826 99.42 77.9746 101.268 77.9746 103.396C77.9746 104.74 78.1146 106 78.4226 107.12ZM88.3906 103.984C88.9786 104.656 89.2866 105.496 89.2866 106.504C89.2866 107.512 88.9786 108.352 88.3626 109.024C87.7466 109.696 86.9346 110.004 85.9546 110.004C84.9466 110.004 84.1626 109.696 83.5466 109.024C82.9306 108.38 82.6506 107.54 82.6506 106.504C82.6506 105.496 82.9586 104.656 83.5746 103.984C84.1906 103.34 85.0026 103.004 86.0106 103.004C86.9906 103.004 87.7746 103.34 88.3906 103.984ZM94.8639 105.468V108.8H104.552V113H108.5V108.8H111.216V105.44H108.5V93.4H103.516L94.8639 105.468ZM98.6999 105.44L104.552 97.32V105.44H98.6999Z" fill="white"/>
</g>
</g>
<defs>
<filter id="filter0_d_6_1404" x="-31.8101" y="0" width="454" height="216" filterUnits="userSpaceOnUse" color-interpolation-filters="sRGB">
<feFlood flood-opacity="0" result="BackgroundImageFix"/>
<feColorMatrix in="SourceAlpha" type="matrix" values="0 0 0 0 0 0 0 0 0 0 0 0 0 0 0 0 0 0 127 0" result="hardAlpha"/>
<feOffset dy="20"/>
<feGaussianBlur stdDeviation="24"/>
<feColorMatrix type="matrix" values="0 0 0 0 0.666667 0 0 0 0 0.666667 0 0 0 0 0.666667 0 0 0 0.29 0"/>
<feBlend mode="normal" in2="BackgroundImageFix" result="effect1_dropShadow_6_1404"/>
<feBlend mode="normal" in="SourceGraphic" in2="effect1_dropShadow_6_1404" result="shape"/>
</filter>
<clipPath id="clip0_6_1404">
<rect x="16.1899" y="28" width="358" height="120" rx="24" fill="white"/>
</clipPath>
</defs>
</svg>
